<svg viewBox="0 0 64 64" xmlns="http://www.w3.org/2000/svg"><g id="Agreement_Handshake" data-name="Agreement Handshake" fill="#8c6c17"><path d="m27.39157 34.444c5.96621-.94116 10.214-.91783 12.70231.09958a7.49871 7.49871 0 0 0 4.50666.54626 6.41781 6.41781 0 0 0 1.20384-.38942l5.5398 10.08858a33.87362 33.87362 0 0 1 -3.7244 2.53486 12.65465 12.65465 0 0 0 -2.873-2.63181l-.39092-.2902a58.983 58.983 0 0 0 -5.09048-3.45625c-2.13555-1.2729-5.76079-3.35951-6.74634-3.2935l-.00285-.01423-.36246.07682a3.80936 3.80936 0 0 1 -2.14067-.16217 1.18145 1.18145 0 0 0 -1.418.503 6.4102 6.4102 0 0 1 -4.23068 2.95323 7.52378 7.52378 0 0 1 -2.263.26119l4.65862-6.43621a.969.969 0 0 1 .63157-.38973z"/><path d="m7.30878 43.41636 6.69967-12.20008a.5.5 0 0 1 .68683-.19316l2.09328 1.19938a.5.5 0 0 1 .18971.67448l-6.69911 12.20057a.5.5 0 0 1 -.68687.19317l-2.09384-1.19987a.5.5 0 0 1 -.18967-.67449z"/><path d="m14.91346 51.26769a.6671.6671 0 0 1 -.09275-.93661l1.53181-1.86924a.66556.66556 0 1 1 1.02993.84329l-1.53238 1.86981a.66.66 0 0 1 -.449.24013.6485.6485 0 0 1 -.48761-.14738z"/><path d="m18.55179 54.79222a.6573.6573 0 0 1 -.48765-.14737v-.00057a.66392.66392 0 0 1 -.09275-.93605l3.48128-4.24832a.66535.66535 0 0 1 1.02937.84329l-3.48129 4.2489a.66221.66221 0 0 1 -.44896.24012z"/><path d="m22.185 56.83786v-.00057a.66466.66466 0 0 1 -.09332-.936l2.321-2.8326a.66623.66623 0 0 1 .93662-.09218.66393.66393 0 0 1 .09275.936l-2.31991 2.832a.66636.66636 0 0 1 -.93714.09335z"/><path d="m26.50788 59.11623-.00057-.00057a.66665.66665 0 0 1 -.09332-.93661l.96279-1.17446a.6606.6606 0 0 1 .449-.2407.65121.65121 0 0 1 .06658-.00341.66613.66613 0 0 1 .51383 1.088l-.96165 1.17389a.66739.66739 0 0 1 -.93666.09386z"/><path d="m45.53829 50.71688a2.07552 2.07552 0 0 1 -2.06612-.22647l-6.90112-4.04234a1.16525 1.16525 0 0 0 -1.17788 2.01093l6.90112 4.04234a5.63639 5.63639 0 0 0 1.318.56546 1.44574 1.44574 0 0 1 -.10143.99309 1.519 1.519 0 0 1 -1.10618.78525l-6.66156-3.5672a1.16569 1.16569 0 1 0 -1.10049 2.05531l5.957 3.18945a1.49094 1.49094 0 0 1 -.2343.602 1.74023 1.74023 0 0 1 -1.67862.67657l-5.1195-2.27609a1.16516 1.16516 0 0 0 -.94686 2.12928l3.92271 1.744c-.03073.02937-.05413.07056-.08635.09737-1.03648.86563-3.17131.70637-6.07952-.42321a2.97148 2.97148 0 0 0 -2.61551-4.628 2.96791 2.96791 0 0 0 -2.87768-3.93479 2.98281 2.98281 0 0 0 -5.18189-2.579 2.98777 2.98777 0 0 0 -5.15222-.94614l-.39867.48644q-.77981-.88661-1.51616-1.82194l5.79304-10.54986a9.87511 9.87511 0 0 0 2.66324.97829c.53823.11331 1.06977.26189 1.60664.39291l-2.74867 3.79794a2.05535 2.05535 0 0 0 -.2094 2.07922 2.09325 2.09325 0 0 0 1.71447 1.21543 9.84408 9.84408 0 0 0 3.528-.3067 9.10228 9.10228 0 0 0 5.11836-3.25766 6.16412 6.16412 0 0 0 2.52419-.00114c1.15113.59577 5.01651 2.69319 5.44726 2.94982a56.59864 56.59864 0 0 1 4.88734 3.32082l.40343.29873a7.62815 7.62815 0 0 1 2.79391 2.885c.25089.64067-.47177 1.16645-.61858 1.26489z"/><path d="m53.99319 44.77087-6.6969-12.19617a.5.5 0 0 1 .19406-.677l1.82149-1.01228a.5.5 0 0 1 .68248.19565l6.6969 12.19616a.5.5 0 0 1 -.19406.677l-1.82148 1.01228a.5.5 0 0 1 -.68249-.19564z"/><path d="m39.79 27.1917v.92a.60174.60174 0 0 1 -.6.6h-14.27a.59541.59541 0 0 1 -.6-.6v-.92a.892.892 0 0 1 .89-.89h5.4v-4.13a1.475 1.475 0 0 1 2.95 0v4.13h5.33a.89413.89413 0 0 1 .9.89z"/><path d="m27.4 18.68169a.01392.01392 0 0 1 0 .02 4.82556 4.82556 0 0 1 -4.94 4.28 4.817 4.817 0 0 1 -4.94-4.26v-.02a.2994.2994 0 0 1 .3-.32h9.27a.31663.31663 0 0 1 .31.3z"/><path d="m46.48 18.70171v.04a4.99431 4.99431 0 0 1 -9.88-.04.01392.01392 0 0 1 0-.02.31663.31663 0 0 1 .31-.3h9.27a.2994.2994 0 0 1 .3.32z"/><path d="m45.66 16.3817h-2.24l-1.88-3.74-1.87 3.74h-2.24l2.58-5.13a8.49195 8.49195 0 0 1 -3.09-1.97c-.93-.81-1.75-1.51-2.65-1.44a2.2853 2.2853 0 0 0 -1.18.49v10.52a3.316 3.316 0 0 0 -1-.15 3.26851 3.26851 0 0 0 -1 .15v-10.38a2.49472 2.49472 0 0 0 -1.36-.63c-.9-.07-1.72.63-2.65 1.44a8.49195 8.49195 0 0 1 -3.09 1.97l2.58 5.13h-2.24l-1.87-3.74-1.88 3.74h-2.24l2.62994-5.23a6.83975 6.83975 0 0 1 -1.37994-.69.99985.99985 0 0 1 1.1-1.67 3.59185 3.59185 0 0 0 2.04.66 5.17166 5.17166 0 0 0 3.04-1.67c1.11-.97 2.36-2.07 4.11-1.94a4.07167 4.07167 0 0 1 1.21.31v-1.2a1 1 0 1 1 2 0v1.14a3.77818 3.77818 0 0 1 1.03-.25c1.76-.13 3 .97 4.11 1.94a5.17166 5.17166 0 0 0 3.04 1.67 3.59185 3.59185 0 0 0 2.04-.66.99985.99985 0 0 1 1.1 1.67 6.83975 6.83975 0 0 1 -1.37994.69z"/></g></svg>