<svg id="Layer_5" enable-background="new 0 0 64 64" height="512" viewBox="0 0 64 64" width="512" xmlns="http://www.w3.org/2000/svg" fill="#8c6c17"><g><path d="m55 37h-19v-18.184c1.161-.414 2-1.514 2-2.816v-1h3c.395 0 .77-.081 1.116-.22.345 1.275 1.501 2.22 2.884 2.22 1.654 0 3-1.346 3-3v-10c0-1.654-1.346-3-3-3-1.383 0-2.538.945-2.884 2.22-.346-.139-.721-.22-1.116-.22h-18c-.395 0-.77.081-1.116.22-.345-1.275-1.501-2.22-2.884-2.22-1.654 0-3 1.346-3 3v10c0 1.654 1.346 3 3 3 1.383 0 2.539-.945 2.884-2.22.346.139.721.22 1.116.22h3v1c0 1.302.839 2.402 2 2.816v18.184h-19c-1.103 0-2 .897-2 2v2c0 1.103.897 2 2 2h.24l2.172 7.821-1.386.935-.147.122c-.567.567-.879 1.321-.879 2.122s.312 1.555.879 2.121c.566.567 1.32.879 2.121.879.335 0 .659-.064.967-.169l.735 3.746c.275 1.404 1.513 2.423 2.944 2.423h30.708c1.431 0 2.669-1.019 2.944-2.423l.735-3.746c.308.105.632.169.967.169.801 0 1.555-.313 2.121-.879.567-.566.879-1.32.879-2.121s-.312-1.555-.879-2.121l-1.538-1.04 2.177-7.839h.24c1.103 0 2-.897 2-2v-2c0-1.103-.897-2-2-2zm-23 6c-1.654 0-3-1.346-3-3s1.346-3 3-3 3 1.346 3 3-1.346 3-3 3zm2-24v16.424c-.614-.27-1.288-.424-2-.424s-1.386.154-2 .424v-16.424zm-8-6v-8h12v8zm18-9c0-.551.449-1 1-1s1 .449 1 1v10c0 .551-.449 1-1 1s-1-.449-1-1v-2-6zm-2 2v6c0 .551-.449 1-1 1h-1v-8h1c.551 0 1 .449 1 1zm-22 8c0 .551-.449 1-1 1s-1-.449-1-1v-10c0-.551.449-1 1-1s1 .449 1 1v2 6zm2-2v-6c0-.551.449-1 1-1h1v8h-1c-.551 0-1-.449-1-1zm14 3v1c0 .551-.449 1-1 1h-6c-.551 0-1-.449-1-1v-1zm-27 24h18.101c-.066.323-.101.658-.101 1 0 .097.023.187.029.282l-1.064.718h-16.965zm2.315 4h11.686l-9.841 6.642zm-.022 11.707c-.191-.191-.293-.436-.293-.707 0-.244.082-.466.238-.647l16.356-11.039c.31.588.729 1.102 1.238 1.522l-15.976 10.748-.149.123c-.384.383-1.03.383-1.414 0zm13.707 6.293h-2v-5c0-.552.449-1 1-1s1 .448 1 1zm8 0h-2v-9c0-.552.449-1 1-1s1 .448 1 1zm8 0h-2v-5c0-.552.449-1 1-1s1 .448 1 1zm6.354 0h-.354v-6h-2v6h-2v-5c0-1.654-1.346-3-3-3s-3 1.346-3 3v5h-2v-9c0-1.654-1.346-3-3-3s-3 1.346-3 3v9h-2v-5c0-1.654-1.346-3-3-3s-3 1.346-3 3v5h-2v-6h-2v6h-.354c-.477 0-.89-.34-.981-.808l-.881-4.494 16.103-10.834c.359.083.729.136 1.113.136s.754-.053 1.114-.135l16.103 10.834-.881 4.494c-.092.467-.505.807-.982.807zm5.646-7c0 .271-.102.516-.293.707-.384.383-1.03.383-1.414 0l-16.126-10.87c.509-.421.928-.935 1.239-1.523l16.356 11.039c.156.181.238.403.238.647zm-2.165-4.343-9.845-6.657h11.695zm4.165-8.657h-16.968l-1.061-.717c.006-.096.029-.186.029-.283 0-.342-.035-.677-.101-1h18.101z"/><path d="m51.658 33.553c.446.892 1.344 1.447 2.342 1.447s1.896-.555 2.342-1.447l6.276-12.553h-4.618v-14h-2v16h3.382l-4.829 9.658c-.211.422-.895.422-1.105 0l-4.83-9.658h3.382v-14h-2v12h-4.618z"/><path d="m8 37v-16h-3.382l4.829-9.659c.211-.421.895-.421 1.105 0l4.83 9.659h-3.382v14h2v-12h4.618l-6.276-12.552c-.446-.893-1.343-1.448-2.342-1.448s-1.896.555-2.342 1.447l-6.276 12.553h4.618v14z"/></g></svg>