<?xml version="1.0" encoding="UTF-8"?>
<svg xmlns="http://www.w3.org/2000/svg" viewBox="0 0 512 512" width="512" height="512"><g id="Solid" fill="#8c6c17"><path d="M320,480H208V464H320ZM208,288v47.951A39.869,39.869,0,0,0,208,288Zm0,160H320V432H208ZM192,160H160v64h32Zm23.164,192a55.907,55.907,0,0,0,.013-80h49.828a32.081,32.081,0,0,0,23,23v34.009a32.081,32.081,0,0,0-23,23ZM248,320h16V304H248Zm-40,64H320V240H208v16h64a8,8,0,0,1,8,8,16,16,0,0,0,16,16,8,8,0,0,1,8,8v48a8,8,0,0,1-8,8,16,16,0,0,0-16,16,8,8,0,0,1-8,8H208Zm0,32H320V400H208Zm-48,64h32V240H160Zm-16-48H32v16H144Zm0-32H32v16H144Zm0,64H32v16H144ZM123.188,293.331A56.028,56.028,0,0,0,136.836,352H87a32.081,32.081,0,0,0-23-23V295a32.081,32.081,0,0,0,23-23h49.827A55.991,55.991,0,0,0,123.188,293.331ZM104,304H88v16h16Zm40-16a39.928,39.928,0,0,0,0,47.952Zm0,80H80a8,8,0,0,1-8-8,16,16,0,0,0-16-16,8,8,0,0,1-8-8V288a8,8,0,0,1,8-8,16,16,0,0,0,16-16,8,8,0,0,1,8-8h64V240H32V384H144ZM480,112H144V85.85L312,32.4,480,85.85ZM272,72H256V88h16Zm64,0a24,24,0,1,0-24,24A24.027,24.027,0,0,0,336,72Zm32,0H352V88h16Zm-24,88V328h32V160ZM480,344H416v48h64ZM416,160H392V328h24Zm16,0V328h32V160Zm36.686-16L480,132.686V128H144v4.686L155.314,144ZM312,64a8,8,0,1,0,8,8A8.009,8.009,0,0,0,312,64Zm-64,96v64h32V160ZM400,344H336v16h64ZM208,160v64h24V160Zm120,0H296v64h32Zm72,216H336v16h64Z"/></g></svg>
