<svg id="Layer_1" enable-background="new 0 0 512 512" height="512" viewBox="0 0 512 512" width="512" xmlns="http://www.w3.org/2000/svg" fill="#8c6c17"><path d="m139.342 476.615c-.001 0-.001 0 0 0zm370.886-134.414c-2.254 5.152-6.367 9.114-11.581 11.154l-29.341 11.48c-2.471.966-5.053 1.449-7.633 1.449-2.866 0-5.73-.595-8.441-1.781-4.003-1.751-7.272-4.634-9.495-8.274l-33.374 14.23c1.061 6.473.066 13.297-3.293 19.405-3.956 7.193-10.505 12.396-18.439 14.65-.082.023-.165.039-.248.061 2.985 8.031 2.626 17.231-1.777 25.237-5.539 10.07-15.98 15.771-26.735 15.771-2.225 0-4.462-.258-6.673-.758.259 5.402-.91 10.921-3.685 15.965-5.538 10.07-15.979 15.771-26.734 15.771-1.307 0-2.617-.09-3.925-.26.406 5.65-.744 11.469-3.666 16.782-5.538 10.069-15.979 15.771-26.734 15.771-4.958 0-9.981-1.211-14.624-3.764l-10.531-5.791c-3.877 5.422-9.409 9.407-15.923 11.381-2.937.89-5.935 1.331-8.913 1.331-4.935 0-9.814-1.21-14.274-3.596-6.992-3.739-11.929-9.837-14.361-16.79-1.287.593-2.621 1.106-4.002 1.525-2.936.89-5.935 1.331-8.912 1.331-4.935 0-9.815-1.21-14.275-3.596-6.327-3.384-10.966-8.701-13.596-14.834-2.03 1.175-4.208 2.131-6.513 2.829-2.937.89-5.934 1.331-8.912 1.331-4.934 0-9.815-1.211-14.274-3.596-7.151-3.825-12.392-10.227-14.756-18.029-1.452-4.79-1.704-9.742-.801-14.507-.602.036-1.203.067-1.803.067-4.935 0-9.814-1.21-14.274-3.595-7.151-3.825-12.392-10.228-14.756-18.03-2.364-7.801-1.56-16.036 2.265-23.187l7.685-14.369c-1.989-4.433-2.879-9.294-3.745-14.037-1.611-8.832-2.776-13.151-6.487-14.592-2.742-1.064-11.015-4.699-26.495-11.645-4.018 5.104-10.169 8.022-16.541 8.022-2.919 0-5.881-.61-8.704-1.901l-28.656-13.096c-10.539-4.816-15.195-17.31-10.379-27.849l58.894-128.865c4.816-10.54 17.311-15.195 27.849-10.378l28.656 13.095c10.539 4.818 15.195 17.311 10.379 27.85l-1.783 3.901 25.94 11.967c.194.09.385.188.572.292 10.32 5.809 21.027 3.28 34.578.078 17.665-4.173 39.411-9.299 64.877 5.732 35.022-21.676 61.915-10.711 81.782-2.591 14.444 5.904 23.752 9.287 32.734 4.616l24.625-13.181-.549-1.404c-4.222-10.791 1.122-23.005 11.912-27.228l29.342-11.481c10.793-4.22 23.004 1.124 27.228 11.912.001 0 .001 0 .001.001l51.627 131.943c2.039 5.215 1.92 10.923-.333 16.075zm-456.001-8.417 58.893-128.865c1.13-2.473-.004-5.517-2.478-6.647l-28.655-13.095c-1.206-.552-2.566-.596-3.83-.124-1.265.471-2.265 1.395-2.815 2.6l-58.895 128.865c-1.13 2.473.004 5.516 2.477 6.646l28.656 13.096c2.474 1.131 5.517-.005 6.647-2.476zm72.027 93.719c3.695-1.12 6.723-3.586 8.534-6.946 0 0 14.276-26.687 14.284-26.701 3.688-6.894.98-15.881-5.917-19.554-6.88-3.664-15.853-1.034-19.572 5.92 0 0-14.251 26.645-14.258 26.658-3.696 6.911-.97 15.873 5.928 19.562 3.384 1.809 7.292 2.185 11.001 1.061zm40.194 29.076s19.312-36.107 19.319-36.122c3.682-6.883.973-15.885-5.916-19.554-6.833-3.639-15.803-1.055-19.543 5.87l-19.349 36.171c-1.81 3.382-2.187 7.29-1.062 11.001s3.607 6.751 6.99 8.561c3.383 1.809 7.288 2.186 11 1.062s6.753-3.607 8.561-6.989zm43.296 14.27s15.614-29.197 15.622-29.212c3.688-6.897.982-15.882-5.916-19.555-6.929-3.69-15.874-.997-19.573 5.92l-15.622 29.212c-3.759 7.028-1.099 15.803 5.929 19.562 3.383 1.809 7.289 2.187 11.001 1.061 3.711-1.124 6.751-3.606 8.559-6.988zm41.55 17.53s13.667-25.556 13.671-25.563c3.653-6.83.937-15.905-5.916-19.554-6.928-3.689-15.873-.999-19.573 5.92l-13.673 25.566c-3.755 7.027-1.095 15.8 5.931 19.558 3.384 1.81 7.292 2.188 11.001 1.061 3.71-1.124 6.75-3.606 8.559-6.988zm45.277-21.95-13.819-7.6c-.071-.039-.135-.086-.205-.126-.351 4.036-1.512 7.991-3.473 11.659l-7.998 14.956 10.463 5.754c6.985 3.841 15.789 1.285 19.629-5.698 3.618-6.577 1.527-14.795-4.597-18.945zm90.675-103.964-77.657-44.262c-13.276-7.569-29.794-.88-48.916 6.862-28.834 11.673-64.72 26.201-95.073-15.626-1.334-1.838-1.824-4.157-1.348-6.377s1.875-4.134 3.846-5.263c23.048-13.203 42.417-27.662 57.571-42.975 3.873-3.914 7.799-7.515 11.741-10.799-17.068-7.654-31.557-4.236-46.751-.646-14.823 3.501-30.146 7.121-45.81-1.542l-25.61-11.815-45.867 100.363c9.148 4.104 21.991 9.834 25.087 11.036 11.48 4.457 14.333 15.498 16.024 24.402 3.55-3.654 7.991-6.378 13.019-7.902 7.804-2.364 16.037-1.56 23.188 2.265 7.13 3.797 12.37 10.189 14.741 17.99.575 1.892.961 3.809 1.166 5.73 7.071-1.544 14.366-.554 20.789 2.881 7.13 3.797 12.37 10.188 14.741 17.99.136.449.26.899.375 1.35.428-.15.858-.294 1.295-.427 7.802-2.364 16.037-1.559 23.188 2.265 7.13 3.798 12.369 10.189 14.741 17.99.137.449.26.9.375 1.351.427-.15.858-.295 1.294-.427 7.799-2.364 16.035-1.56 23.188 2.265 3.483 1.855 6.511 4.332 8.978 7.287l40.303 22.345c6.98 3.838 15.788 1.286 19.63-5.697 3.804-6.915 1.217-15.738-5.767-19.668l-47.934-26.979c-3.851-2.167-5.215-7.045-3.048-10.896 2.167-3.85 7.044-5.215 10.896-3.048l63.315 35.31c6.98 3.839 15.788 1.285 19.63-5.698 3.777-6.867 1.246-15.612-5.63-19.581-.445-.223-56.995-32.138-56.995-32.138-3.847-2.173-5.204-7.053-3.031-10.9 2.172-3.846 7.051-5.207 10.9-3.031l55.67 31.445c3.255 1.838 7.076 2.274 10.756 1.228 3.791-1.077 6.914-3.553 8.794-6.97 3.782-6.875 1.179-15.708-5.804-19.688zm50.346-21.009-40.721-104.068-23.031 12.327c-16.094 8.371-31.427 2.105-46.255-3.956-20.252-8.278-41.194-16.837-71.461 4.086-6.34 4.382-12.76 9.844-19.082 16.233-14.344 14.494-32.111 28.205-52.902 40.833 21.399 23.209 44.321 13.933 70.529 3.324 21.056-8.524 42.828-17.34 62.844-5.932l77.656 44.262c3.396 1.935 6.288 4.429 8.627 7.301zm58.067-9.499s-51.604-131.885-51.627-131.943c-.978-2.5-3.999-3.822-6.498-2.843l-29.341 11.48c-2.531.991-3.834 3.967-2.843 6.499l51.628 131.943c.482 1.234 1.43 2.212 2.666 2.753 1.237.542 2.598.574 3.831.09l29.341-11.48c1.234-.483 2.212-1.43 2.753-2.667s.574-2.598.09-3.832zm-65.283-121.609c-6.138 0-11.145 5.006-11.145 11.144s5.007 11.145 11.145 11.145 11.145-5.007 11.145-11.145-5.006-11.144-11.145-11.144zm-341.977-11.615c-6.146-.343-11.405 4.361-11.748 10.507s4.361 11.405 10.507 11.748 11.405-4.361 11.748-10.507-4.361-11.406-10.507-11.748zm1.122-52.576c-3.951-5.36-5.042-11.814-3.072-18.173 5.486-17.715 18.169-31.502 34.285-38.613-6.281-6.409-10.164-15.177-10.164-24.838 0-19.583 15.933-35.516 35.516-35.516s35.514 15.932 35.514 35.515c0 9.657-3.879 18.421-10.154 24.829 7.903 3.496 15.018 8.632 20.899 15.159 8.96-11.46 20.936-20.372 34.692-25.634-9.666-8.22-15.814-20.457-15.814-34.109 0-24.69 20.088-44.777 44.778-44.777s44.777 20.087 44.777 44.778c0 13.653-6.149 25.89-15.814 34.11 13.756 5.262 25.732 14.175 34.692 25.635 5.882-6.527 12.996-11.663 20.899-15.159-6.275-6.409-10.155-15.173-10.155-24.83 0-19.583 15.933-35.515 35.516-35.515s35.516 15.932 35.516 35.515c0 9.662-3.883 18.43-10.164 24.839 16.115 7.111 28.799 20.897 34.284 38.613 1.97 6.359.879 12.813-3.072 18.173-3.953 5.36-9.795 8.312-16.452 8.312h-69.706v6.7c-.001 15.13-12.311 27.439-27.439 27.439h-105.765c-15.13 0-27.438-12.309-27.438-27.439v-6.702h-69.707c-6.66-.001-12.502-2.952-16.452-8.312zm276.387-62.108h.007.008c10.757-.004 19.509-8.757 19.509-19.515 0-10.761-8.755-19.515-19.516-19.515s-19.516 8.754-19.516 19.515c0 10.758 8.751 19.511 19.508 19.515zm-37.305 34.831c2.975 6.119 5.214 12.68 6.579 19.591h70.846c1.529 0 2.665-.574 3.574-1.806.907-1.23 1.119-2.485.667-3.946-6.05-19.537-23.869-32.664-44.342-32.669-.003 0-.007 0-.01 0s-.006 0-.009 0c-14.934.002-28.569 6.975-37.305 18.83zm-72.623-45.325h.02.021c15.859-.011 28.758-12.916 28.758-28.777-.001-15.868-12.91-28.778-28.778-28.778s-28.778 12.91-28.778 28.778c0 15.861 12.899 28.766 28.757 28.777zm-64.3 73.352v14.263c0 6.308 5.131 11.439 11.438 11.439h105.764c6.308 0 11.438-5.132 11.439-11.439v-14.263c-3.709-32.721-31.278-57.342-64.301-57.352-.006 0-.013 0-.02 0s-.014-.001-.021-.001c-33.023.011-60.592 24.633-64.299 57.353zm-45.602-62.86h.007s.005 0 .007 0c10.758-.004 19.508-8.757 19.508-19.515 0-10.761-8.754-19.516-19.515-19.516s-19.516 8.755-19.516 19.516c0 10.759 8.751 19.511 19.509 19.515zm-43.679 52.617c.908 1.231 2.043 1.805 3.573 1.805h70.847c1.365-6.91 3.604-13.472 6.578-19.59-8.736-11.855-22.372-18.828-37.305-18.831-.002 0-.005 0-.008 0s-.007 0-.011 0c-20.474.005-38.293 13.132-44.343 32.669-.451 1.46-.239 2.715.669 3.947z"/></svg>