<svg id="Layer_1" viewBox="0 0 512 512" xmlns="http://www.w3.org/2000/svg" data-name="Layer 1" fill="#8c6c17"><path d="m350.717 302.676c2.505.234 4.941-.891 6.386-2.949 1.444-2.059 1.673-4.734.6-7.008l-25.596-54.226c6.268-1.689 11.865-5.007 16.874-10.016 9.57-9.571 13.029-21.258 10.575-35.729-1.638-9.668 2.157-18.831 10.152-24.509 11.968-8.5 17.787-19.21 17.787-32.743s-5.818-24.243-17.787-32.743c-7.995-5.678-11.79-14.841-10.151-24.511 2.449-14.476-1.011-26.162-10.577-35.728-9.571-9.571-21.259-13.031-35.728-10.575-9.668 1.638-18.831-2.157-24.51-10.152-8.501-11.969-19.211-17.787-32.743-17.787s-24.243 5.818-32.743 17.787c-5.679 7.995-14.844 11.791-24.51 10.151-14.476-2.449-26.162 1.01-35.728 10.577s-13.029 21.257-10.575 35.729c1.638 9.668-2.157 18.831-10.153 24.509-11.968 8.501-17.786 19.211-17.786 32.743s5.818 24.243 17.786 32.742c7.995 5.679 11.791 14.842 10.152 24.511-2.449 14.475 1.01 26.162 10.577 35.728 5.118 5.118 10.849 8.471 17.28 10.124l-25.627 54.294c-1.073 2.274-.845 4.949.6 7.008s3.878 3.18 6.386 2.949l29.48-2.771 18.917 22.78c1.343 1.617 3.324 2.528 5.385 2.528.405 0 .812-.035 1.219-.107 2.476-.438 4.527-2.17 5.373-4.539l20.062-56.169c4.27 1.614 8.893 2.417 13.906 2.417 5.164 0 9.914-.854 14.29-2.567l20.053 56.143c.846 2.368 2.897 4.101 5.373 4.539.407.072.814.107 1.219.107 2.06 0 4.042-.911 5.385-2.528l18.917-22.78zm-137.739 1.793-13.433-16.175c-1.478-1.779-3.737-2.714-6.041-2.497l-20.932 1.968 22.776-48.252c1.117-.12 2.246-.265 3.398-.46 9.669-1.638 18.832 2.157 24.509 10.152 2.095 2.95 4.327 5.523 6.7 7.731l-16.978 47.534zm21.692-63.371c-7.505-10.567-18.906-16.434-31.387-16.434-2.261 0-4.561.193-6.875.585-10.081 1.709-17.105-.287-23.49-6.672-6.383-6.383-8.379-13.409-6.673-23.492 2.557-15.093-3.368-29.396-15.849-38.262-8.336-5.92-11.893-12.299-11.893-21.329s3.557-15.408 11.893-21.329c12.482-8.865 18.407-23.169 15.849-38.263-1.709-10.079.286-17.104 6.672-23.49 6.383-6.384 13.407-8.378 23.491-6.672 15.091 2.56 29.397-3.368 38.262-15.848 5.921-8.336 12.3-11.893 21.329-11.893s15.408 3.557 21.33 11.894c8.864 12.479 23.165 18.401 38.263 15.848 10.077-1.709 17.103.286 23.49 6.672 6.383 6.382 8.378 13.408 6.673 23.49-2.558 15.093 3.366 29.397 15.848 38.262 8.336 5.921 11.893 12.3 11.893 21.329s-3.557 15.408-11.894 21.329c-12.481 8.865-18.406 23.169-15.848 38.263 1.709 10.079-.286 17.104-6.672 23.49-6.383 6.384-13.407 8.381-23.491 6.673-15.093-2.559-29.397 3.367-38.262 15.848-5.922 8.337-12.301 11.894-21.33 11.894s-15.408-3.557-21.329-11.893zm78.157 47.02-13.432 16.174-17.029-47.675c2.251-2.138 4.377-4.599 6.376-7.413 5.679-7.995 14.842-11.79 24.511-10.151 1.317.223 2.604.38 3.875.504l22.671 48.03-20.932-1.967c-2.305-.216-4.563.718-6.041 2.498zm28.358-152.623c0-46.972-38.214-85.186-85.186-85.186s-85.186 38.214-85.186 85.186 38.214 85.186 85.186 85.186 85.186-38.214 85.186-85.186zm-85.186 71.186c-39.252 0-71.186-31.934-71.186-71.186s31.934-71.186 71.186-71.186 71.186 31.934 71.186 71.186-31.934 71.186-71.186 71.186zm56.091-89.172c-1.322-4.069-4.78-6.929-9.024-7.462l-26.028-3.271-11.154-23.743c-1.819-3.872-5.607-6.277-9.885-6.277s-8.065 2.406-9.884 6.277l-11.155 23.743-26.027 3.271c-4.246.533-7.704 3.393-9.024 7.46-1.323 4.068-.206 8.414 2.915 11.341l19.134 17.946-4.931 25.764c-.804 4.202.846 8.374 4.306 10.887 3.46 2.515 7.938 2.795 11.687.732l22.979-12.651 22.981 12.652c1.667.917 3.478 1.372 5.28 1.372 2.249 0 4.483-.708 6.403-2.103 3.461-2.514 5.112-6.686 4.308-10.889l-4.931-25.765 19.135-17.947c3.119-2.927 4.235-7.272 2.914-11.338zm-34.438 21.71c-1.75 1.641-2.538 4.064-2.086 6.421l4.424 23.113-20.615-11.349c-2.102-1.157-4.65-1.157-6.752 0l-20.615 11.35 4.424-23.113c.451-2.356-.336-4.78-2.086-6.421l-17.165-16.099 23.35-2.935c2.381-.299 4.442-1.797 5.462-3.969l10.007-21.299 10.006 21.299c1.02 2.171 3.082 3.669 5.462 3.969l23.35 2.935-17.165 16.099zm-80.82 215.565c-6.03-20.497-21.01-31.979-38.356-45.275-18.863-14.458-40.239-30.842-59.457-64.086-4.382-8.192-12.548-13.148-21.875-13.265-5.9-.075-11.38 1.8-15.773 5.229-5.169-32.752-8.291-77.66-8.291-96.654 0-16.033-9.223-25.063-18.363-26.902-9.995-2.011-19.484 3.917-24.172 15.102-6.507 15.53-7.211 76.745-6.142 106.068.988 27.081 2.829 48.333 17.597 75.269 7.021 12.806 15.615 25.262 23.927 37.308 3.495 5.066 6.797 9.851 9.84 14.462 13.272 20.109 22.217 36.754 24.736 54.796-7.408 1.529-13.716 7.067-15.804 14.858l-9.892 36.917c-.48 1.793-.229 3.704.699 5.312s2.457 2.781 4.25 3.261l114.119 30.578c.596.16 1.205.239 1.812.239 1.218 0 2.427-.318 3.5-.938 1.608-.928 2.781-2.457 3.261-4.25l9.892-36.917c2.262-8.439-1.085-17.069-7.731-21.963 14.486-41.052 18.251-68.659 12.223-89.148zm-18.015 107.487-8.08 30.155-100.596-26.954 8.08-30.155c.949-3.538 4.595-5.642 8.134-4.697l87.765 23.517c3.538.948 5.645 4.597 4.697 8.134zm-7.297-23.325-76.734-20.561c-2.521-24.615-15.342-45.887-27.334-64.057-3.123-4.732-6.464-9.575-10.001-14.701-8.111-11.756-16.498-23.912-23.174-36.088-13.319-24.293-14.936-43.112-15.882-69.049-1.338-36.694.623-89.548 5.063-100.146 2.058-4.907 5.233-7.446 8.5-6.789 3.431.69 7.123 5.107 7.123 13.177 0 25.158 4.983 90.741 13.124 122.408l.006-.002c3.903 28.475 36.48 66.301 51.007 75.558 3.261 2.077 7.587 1.118 9.665-2.142s1.119-7.587-2.142-9.665c-7.365-4.693-21.313-19.484-31.907-36.113-11.017-17.295-15.52-32.215-11.75-38.939 2.024-3.61 5.747-5.697 9.883-5.682 4.165.052 7.806 2.269 9.738 5.93.041.078.084.155.128.231 20.628 35.728 44.191 53.79 63.125 68.303 16.662 12.771 28.701 21.999 33.442 38.115 5.066 17.219 1.289 42.782-11.881 80.211zm329.932-310.013c-4.688-11.184-14.176-17.11-24.171-15.102-9.14 1.838-18.363 10.869-18.363 26.902 0 18.992-3.121 63.896-8.29 96.649-4.391-3.431-9.868-5.307-15.774-5.224-9.326.118-17.493 5.073-21.875 13.265-19.218 33.244-40.594 49.627-59.457 64.086-17.346 13.295-32.326 24.778-38.356 45.275-6.028 20.489-2.263 48.096 12.222 89.148-6.645 4.894-9.992 13.523-7.73 21.962l9.892 36.917c.48 1.793 1.653 3.322 3.261 4.25 1.073.62 2.282.938 3.5.938.606 0 1.216-.079 1.812-.239l114.119-30.578c1.793-.48 3.322-1.653 4.25-3.261s1.18-3.519.699-5.312l-9.892-36.917c-2.088-7.79-8.398-13.327-15.804-14.857 2.519-18.041 11.464-34.687 24.735-54.796 3.042-4.61 6.343-9.393 9.837-14.457 8.312-12.048 16.908-24.506 23.93-37.313 14.769-26.938 16.61-48.188 17.597-75.269 1.07-29.323.366-90.538-6.143-106.068zm-67.675 306.384 8.08 30.156-100.596 26.954-8.08-30.156c-.948-3.537 1.159-7.186 4.696-8.134l87.766-23.517c.574-.154 1.15-.227 1.717-.227 2.932 0 5.623 1.96 6.417 4.923zm59.827-200.827c-.946 25.937-2.562 44.754-15.883 69.05-6.676 12.178-15.065 24.335-23.177 36.093-3.537 5.125-6.876 9.966-9.999 14.696-11.992 18.171-24.812 39.442-27.333 64.057l-76.735 20.561c-13.171-37.429-16.947-62.993-11.881-80.211 4.741-16.116 16.78-25.343 33.442-38.115 18.934-14.513 42.497-32.575 63.125-68.303.044-.077.087-.154.128-.231 1.933-3.661 5.573-5.877 9.738-5.93 4.193-.012 7.86 2.072 9.884 5.683 3.77 6.724-.733 21.644-11.75 38.938-10.593 16.628-24.542 31.419-31.907 36.113-3.26 2.078-4.219 6.405-2.142 9.665 2.078 3.259 6.403 4.219 9.665 2.142 14.527-9.257 47.105-47.082 51.008-75.558l.006.002c8.141-31.671 13.123-97.253 13.123-122.408 0-8.069 3.692-12.487 7.124-13.177 3.264-.656 6.443 1.881 8.5 6.788 4.442 10.599 6.402 63.453 5.064 100.146zm-109.585-156.352c-1.933-3.348-.786-7.629 2.562-9.562l17.234-9.95c3.349-1.932 7.629-.786 9.562 2.562s.786 7.629-2.562 9.562l-17.234 9.95c-1.103.636-2.306.939-3.494.939-2.419 0-4.772-1.255-6.068-3.501zm26.796 122.101c3.348 1.933 4.495 6.214 2.562 9.562-1.296 2.246-3.649 3.501-6.069 3.501-1.188 0-2.391-.302-3.493-.939l-17.234-9.95c-3.348-1.933-4.495-6.214-2.562-9.562 1.934-3.349 6.214-4.496 9.562-2.562zm-4.428-71.744h19.9c3.866 0 7 3.134 7 7s-3.134 7-7 7h-19.9c-3.866 0-7-3.134-7-7s3.134-7 7-7zm-287.969 61.794c3.35-1.932 7.63-.786 9.562 2.562 1.933 3.348.786 7.629-2.562 9.562l-17.234 9.95c-1.103.636-2.306.939-3.493.939-2.419 0-4.772-1.255-6.069-3.501-1.933-3.348-.786-7.629 2.562-9.562zm-39.707-54.794c0-3.866 3.134-7 7-7h19.901c3.866 0 7 3.134 7 7s-3.134 7-7 7h-19.901c-3.866 0-7-3.134-7-7zm19.911-74.307c1.933-3.349 6.215-4.496 9.562-2.562l17.234 9.95c3.348 1.933 4.495 6.214 2.562 9.562-1.296 2.246-3.649 3.501-6.068 3.501-1.188 0-2.391-.302-3.494-.939l-17.234-9.95c-3.348-1.933-4.495-6.214-2.562-9.562z"/></svg>