<svg id="Layer_1" enable-background="new 0 0 76 76" height="512" viewBox="0 0 76 76" width="512" xmlns="http://www.w3.org/2000/svg" fill="#8c6c17"><g><path d="m49.46 40.05c2.74 0 4.97-2.23 4.97-4.97s-2.23-4.97-4.97-4.97-4.97 2.23-4.97 4.97 2.23 4.97 4.97 4.97z"/><path d="m25.44 40.05c2.74 0 4.97-2.23 4.97-4.97s-2.23-4.97-4.97-4.97-4.97 2.23-4.97 4.97 2.23 4.97 4.97 4.97z"/><path d="m54.73 50.06v-6.74c0-1.52-1.23-2.75-2.75-2.75h-5.04c-1.52 0-2.75 1.23-2.75 2.75v6.74l-1.19 3.75-1.36.45h-7.3l-1.29-.43c.05-.21.08-.43.08-.65v-9.39c0-1.6-1.3-2.91-2.91-2.91h-2.31c-.42 0-.79.26-.94.65l-1.66 4.4-1.66-4.4c-.15-.39-.52-.65-.94-.65h-2.06c-1.6 0-2.91 1.3-2.91 2.91v9.39c0 1.29.84 2.38 2.01 2.76l1.53 14.17c.05.51.48.89.99.89h6.33c.51 0 .94-.38.99-.89l1.29-11.93 2.3.75v11.07c0 .55.45 1 1 1h2.63c.48 0 .89-.34.98-.81l.2-1.04.2 1.04c.09.47.5.81.98.81h2.63c.55 0 1-.45 1-1v-7.62h3.29v7.62c0 .55.45 1 1 1h4.73c.55 0 1-.45 1-1v-7.62h4.43c.32 0 .62-.15.81-.41s.24-.59.15-.89zm-2.95-7.49c-.39.91-1.27 1.53-2.31 1.53s-1.93-.62-2.32-1.53zm-24.07 26.43h-4.54l-1.39-12.92h3.22c.55 0 1-.45 1-1s-.45-1-1-1h-4.33c-.58 0-.92-.46-.92-.91v-9.39c0-.5.41-.91.91-.91h1.37l2.35 6.22c.15.39.52.65.94.65s.79-.26.94-.65l2.35-6.22h1.62c.5 0 .91.41.91.91v9.39.02l-1.01-.33c-.74-.24-1.52-.12-2.14.33-.62.46-.99 1.19-.99 1.97 0 1.04.66 1.96 1.65 2.28l.3.1zm13.79-11.75c-.41.13-.69.52-.69.95v10.8h-.81l-1.03-5.43c-.09-.47-.5-.81-.98-.81s-.89.34-.98.81l-1.02 5.43h-.8v-10.8c0-.43-.28-.82-.69-.95l-5.23-1.71c-.17-.05-.27-.21-.27-.38 0-.14.06-.27.17-.35.1-.07.21-.08.34-.04l4.37 1.44c.1.03.21.05.31.05h7.62c.11 0 .21-.02.31-.05l4.36-1.44c.17-.05.3.01.36.06s.17.15.17.33c0 .16-.12.32-.29.38zm9.32 11.75h-2.72v-6.62h2.73v6.62zm1-8.62h-4.72-4.29v-1.46l4.54-1.49c1-.33 1.67-1.24 1.67-2.28 0-.77-.38-1.5-1-1.96-.63-.45-1.43-.58-2.16-.33l-.5.17.8-2.52c.03-.1.05-.2.05-.3v-5.52c.82.86 1.98 1.4 3.27 1.4s2.44-.54 3.27-1.4v5.52c0 .1.02.2.05.3l3.12 9.87z"/><path d="m70.93 22.26c-.01-.03-.03-.05-.04-.08-.03-.05-.05-.1-.08-.14l-5.83-8.17h5.02c.55 0 1-.44 1-1 0-.55-.45-1-1-1h-28.16c-.37-1.38-1.45-2.46-2.83-2.83v-3.04c0-.55-.45-1-1-1-.56 0-1 .45-1 1v3.04c-1.38.36-2.47 1.45-2.84 2.83h-28.17c-.55 0-1 .45-1 1 0 .56.45 1 1 1h5.02l-5.83 8.17c-.04.04-.05.09-.08.14-.01.03-.03.05-.04.08-.04.1-.06.22-.07.33v.03c0 4.39 3.57 7.96 7.95 7.96 4.39 0 7.96-3.57 7.96-7.96 0-.01-.01-.02-.01-.03 0-.11-.02-.22-.07-.33-.01-.03-.02-.05-.04-.08-.02-.05-.04-.1-.07-.14l-5.83-8.17h19.27c.36 1.4 1.45 2.49 2.85 2.85v28c-2.12.46-3.72 2.34-3.72 4.6 0 2.6 2.12 4.72 4.72 4.72 2.59 0 4.7-2.12 4.7-4.72 0-2.26-1.59-4.15-3.7-4.61v-27.99c1.39-.36 2.48-1.45 2.84-2.85h19.26l-5.83 8.17c-.03.04-.05.09-.08.14-.01.03-.02.05-.03.08-.05.1-.07.22-.07.33 0 .01-.01.02-.01.03 0 4.39 3.57 7.96 7.96 7.96 4.38 0 7.95-3.57 7.95-7.96 0-.01-.01-.02-.01-.03 0-.11-.02-.22-.06-.33zm-52.96-.64h-10.03l5.01-7.02zm40.06 0 5.02-7.02 5.01 7.02z"/></g></svg>