<svg id="Layer_1" enable-background="new 0 0 66 66" viewBox="0 0 66 66" xmlns="http://www.w3.org/2000/svg" fill="#8c6c17"><g><path d="m35.64 55.77c.33 0 .6-.27.6-.6s-.27-.6-.6-.6h-21.9v-45.45h26.09c1.33 0 2.41 1.08 2.41 2.41v17.7c0 .33.27.6.6.6s.6-.27.6-.6v-17.7c0-1.99-1.62-3.62-3.62-3.62h-1.73v-2.67c0-1.12-.5-2.15-1.38-2.84s-2-.93-3.09-.66l-25.32 6.18c-1.95.05-3.52 1.65-3.52 3.61v40.62c0 1.99 1.62 3.61 3.61 3.61h4.75 22.5zm-1.71-52.87c.72-.18 1.47-.02 2.06.44s.92 1.15.92 1.9v2.68h-23.52z"/><path d="m19.87 27.62c-1.15-1.48-1.82-3.25-1.94-5.12h3.94c.03 1.19.16 2.33.37 3.37-.86.47-1.66 1.06-2.37 1.75zm.01-11.44c.71.69 1.51 1.28 2.37 1.74-.21 1.05-.34 2.18-.37 3.38h-3.94c.12-1.87.79-3.64 1.94-5.12zm14.75 0c1.15 1.48 1.82 3.25 1.94 5.12h-3.94c-.03-1.19-.16-2.33-.37-3.38.86-.46 1.66-1.05 2.37-1.74zm0 11.44c-.71-.69-1.51-1.28-2.37-1.75.21-1.05.34-2.18.37-3.37h3.94c-.13 1.87-.8 3.64-1.94 5.12zm-6.78 3.51v-5.29c1.04.07 2.06.31 3.01.7-.63 2.41-1.74 4.16-3.01 4.59zm0-6.51v-2.12h3.57c-.03 1-.13 1.95-.3 2.85-1.03-.41-2.14-.66-3.27-.73zm3.58-3.32h-3.57v-2.12c1.13-.06 2.24-.31 3.28-.72.15.88.26 1.84.29 2.84zm-3.58-3.34v-5.29c1.27.43 2.37 2.18 3.01 4.58-.95.4-1.97.64-3.01.71zm-1.2-5.29v5.29c-1.04-.07-2.06-.31-3.01-.7.64-2.41 1.74-4.16 3.01-4.59zm0 6.5v2.12h-3.57c.03-1 .13-1.96.3-2.85 1.03.42 2.14.67 3.27.73zm-3.57 3.33h3.57v2.12c-1.13.06-2.24.31-3.28.72-.16-.89-.26-1.84-.29-2.84zm3.57 3.34v5.29c-1.27-.43-2.37-2.18-3.01-4.59.95-.39 1.97-.63 3.01-.7zm3.56 4.92c.73-.92 1.33-2.18 1.75-3.67.67.39 1.29.88 1.85 1.44-1.02 1.01-2.25 1.78-3.6 2.23zm3.61-15.48c-.56.56-1.18 1.04-1.85 1.44-.42-1.49-1.03-2.75-1.75-3.67 1.34.45 2.57 1.21 3.6 2.23zm-9.53-2.24c-.73.92-1.33 2.18-1.75 3.67-.67-.39-1.29-.88-1.85-1.44 1.02-1.01 2.25-1.77 3.6-2.23zm-3.61 15.49c.56-.56 1.18-1.04 1.85-1.44.42 1.49 1.03 2.75 1.75 3.67-1.34-.45-2.57-1.22-3.6-2.23z"/><path d="m16.62 36.95h8.09c.33 0 .6-.27.6-.6s-.27-.6-.6-.6h-8.09c-.33 0-.6.27-.6.6s.27.6.6.6z"/><path d="m25.4 40.06c0-.33-.27-.6-.6-.6h-8.26c-.33 0-.6.27-.6.6s.27.6.6.6h8.26c.33 0 .6-.26.6-.6z"/><path d="m16.54 44.38h7.11c.33 0 .6-.27.6-.6s-.27-.6-.6-.6h-7.11c-.33 0-.6.27-.6.6s.26.6.6.6z"/><path d="m16.54 48.1h5.92c.33 0 .6-.27.6-.6s-.27-.6-.6-.6h-5.92c-.33 0-.6.27-.6.6s.26.6.6.6z"/><path d="m16.54 51.82h7.27c.33 0 .6-.27.6-.6s-.27-.6-.6-.6h-7.27c-.33 0-.6.27-.6.6s.26.6.6.6z"/><path d="m60.96 46.77c-.18-.2-.44-.31-.71-.31h-.34l-3.12-6.05c1.25-.52 2.14-1.75 2.14-3.18 0-1.9-1.54-3.44-3.44-3.44-1.14 0-2.15.56-2.77 1.41h-5.45c-.82-1.61-2.48-2.71-4.4-2.71s-3.59 1.11-4.4 2.71h-5.45c-.63-.85-1.64-1.41-2.77-1.41-1.9 0-3.44 1.54-3.44 3.44 0 1.44.88 2.67 2.14 3.18l-3.12 6.05h-.34c-.27 0-.53.11-.71.31s-.28.47-.26.74c.23 2.97 2.75 5.3 5.73 5.3s5.5-2.33 5.73-5.3c.02-.27-.07-.54-.26-.74-.18-.2-.44-.31-.71-.31h-.34l-3.12-6.05c.43-.18.82-.44 1.14-.76h5.78c.48.94 1.24 1.7 2.18 2.18v11.91c-1.05.09-1.88.96-1.88 2.03v.52h-.36c-1 0-1.81.81-1.81 1.82 0 1.45-1.18 2.64-2.64 2.64-1 0-1.82.81-1.82 1.81s.81 1.82 1.82 1.82c2.76 0 5.21-1.85 6-4.45h5.83c.79 2.61 3.24 4.45 6 4.45 1 0 1.81-.81 1.81-1.82 0-1-.81-1.81-1.81-1.81-1.45 0-2.64-1.18-2.64-2.64 0-1-.81-1.82-1.82-1.82h-.36v-.52c0-1.07-.83-1.94-1.88-2.03v-11.91c.94-.48 1.7-1.24 2.18-2.18h5.78c.32.32.71.58 1.14.76l-3.12 6.05h-.34c-.27 0-.53.11-.71.31s-.28.47-.26.74c.23 2.97 2.75 5.3 5.73 5.3s5.5-2.33 5.73-5.3c.02-.27-.08-.54-.26-.74zm-4.88-5.11 2.47 4.8h-2.47zm-.6-6.68c1.24 0 2.24 1.01 2.24 2.24s-1 2.24-2.24 2.24 0 0 0 0c-1.23 0-2.24-1.01-2.24-2.24s1.01-2.24 2.24-2.24zm-27.5 2.24c0-1.24 1.01-2.24 2.24-2.24s2.24 1.01 2.24 2.24-1 2.24-2.24 2.24c-1.24 0-2.24-1-2.24-2.24zm1.64 4.44v4.8h-2.47zm.6 9.95c-2.28 0-4.21-1.72-4.51-3.95h.44.01.01 4.04.01s0 0 .01 0h4.05.01.01.43c-.3 2.23-2.23 3.95-4.51 3.95zm.6-5.15v-4.8l2.47 4.8zm2.61-8.02c.14-.38.23-.79.23-1.22 0-.29-.04-.56-.1-.83h4.46c-.07.33-.11.67-.11 1.03 0 .35.04.69.11 1.02zm12.32 17.33v.52h-5.8v-.52c0-.46.38-.84.84-.84h.42.01.01 3.23.01.01.42c.47-.01.85.37.85.84zm-1.88-2.05h-2.05v-11.47c.33.07.67.11 1.02.11s.69-.04 1.02-.11v11.47zm-1.02-12.56c-2.06 0-3.74-1.68-3.74-3.74s1.68-3.74 3.74-3.74 3.74 1.68 3.74 3.74-1.68 3.74-3.74 3.74zm4.83-2.72c.07-.33.11-.67.11-1.02s-.04-.69-.11-1.03h4.46c-.07.27-.1.54-.1.83 0 .43.08.84.23 1.22zm7.2 3.22v4.8h-2.47zm.6 9.95c-2.28 0-4.21-1.72-4.51-3.95h.44.01.01 4.04.01s0 0 .01 0h4.04.01.01.44c-.29 2.23-2.23 3.95-4.51 3.95z"/></g></svg>