<svg id="glipy_copy_2" viewBox="0 0 64 64" xmlns="http://www.w3.org/2000/svg" data-name="glipy copy 2" fill="#8c6c17"><path d="m29.517 54.5h4.966a4.23312 4.23312 0 0 0 3.9054-2.61969h-12.77683a4.23312 4.23312 0 0 0 3.90543 2.61969z"/><path d="m25.29 48.457h13.42v1.816h-13.42z"/><path d="m32 12.71429a.80338.80338 0 0 0 .80359-.80358v-1.60718a.80359.80359 0 0 0 -1.60718 0v1.60718a.80338.80338 0 0 0 .80359.80358z"/><path d="m17.79468 18.59821a.80888.80888 0 0 0 .56811-1.37171l-1.13629-1.13629a.80348.80348 0 0 0 -1.13629 1.13629l1.13629 1.13629a.80086.80086 0 0 0 .56818.23542z"/><path d="m11.91071 31.19641h-1.60712a.80371.80371 0 0 0 0 1.60712h1.60712a.80371.80371 0 0 0 0-1.60712z"/><path d="m53.69641 31.19641h-1.60712a.80371.80371 0 0 0 .00007 1.60712h1.60705a.80371.80371 0 0 0 0-1.60712z"/><path d="m46.7735 16.09021-1.13635 1.13629a.8089.8089 0 0 0 .56823 1.37171c.48767.07476 1.27155-1.00861 1.70441-1.37171a.80363.80363 0 0 0 -1.13629-1.13629z"/><path d="m32.98035 15.96069c-16.15827-.87237-22.87812 20.31842-9.048 28.84821a2.82338 2.82338 0 0 1 1.32565 2.0411h13.48394a2.83975 2.83975 0 0 1 1.33393-2.04914c12.93054-7.92861 8.06488-27.8257-7.09552-28.84017zm9.46606 10.47052h-2.53924v1.17322h.86783a.80365.80365 0 0 1 0 1.60712h-.86779v1.18127h2.53924a.80369.80369 0 0 1 -.0001 1.60718h-2.53918v1.18121h.86783a.80356.80356 0 1 1 0 1.60712h-.86779v1.17328h2.53924a.80366.80366 0 0 1 -.00006 1.60712h-2.53922a1.619 1.619 0 0 1 -1.53486 1.53479v2.5393a.80364.80364 0 0 1 -1.60711 0v-2.5393h-1.17328v.86785a.80365.80365 0 0 1 -1.60712 0v-.86785h-1.18121v2.5393a.80369.80369 0 0 1 -1.60718 0v-2.5393h-1.18121v.86785a.80356.80356 0 1 1 -1.60712 0v-.86785h-1.17328v2.5393a.80365.80365 0 0 1 -1.60711 0v-2.5393a1.619 1.619 0 0 1 -1.53486-1.53479h-2.53924a.80356.80356 0 1 1 0-1.60712h2.53924v-1.17328h-.86783a.80356.80356 0 1 1 0-1.60712h.86779v-1.18121h-2.5392a.80359.80359 0 0 1 0-1.60718h2.53924v-1.18127h-.86783a.80356.80356 0 1 1 0-1.60712h.86779v-1.17322h-2.5392a.80365.80365 0 0 1 0-1.60711h2.53924a1.619 1.619 0 0 1 1.53486-1.53485v-2.53925a.80356.80356 0 1 1 1.60711 0v2.53925h1.17328v-.86786a.80356.80356 0 1 1 1.60712 0v.86786h1.18121v-2.53925a.80359.80359 0 0 1 1.60718 0v2.53925h1.18121v-.86786a.80365.80365 0 0 1 1.60712.00006v.8678h1.17328v-2.53925a.80365.80365 0 0 1 1.60711.00006v2.53919a1.619 1.619 0 0 1 1.53486 1.53485h2.53924a.80356.80356 0 1 1 0 1.60711z"/><path d="m25.7 37.4964h12.6001v-12.6h-12.6001zm8.97595-9.60266a.80369.80369 0 0 1 1.60712.00006v6.60528a.80369.80369 0 0 1 -1.60717-.00008zm-6.959 1.64734a2.45552 2.45552 0 0 1 2.45093-2.45093h.82769a2.45722 2.45722 0 0 1 2.45893 2.45093v4.958a.80359.80359 0 0 1 -1.60718 0v-2.49908h-2.52322v2.49908a.80372.80372 0 0 1 -1.60718-.00006z"/><path d="m31.84729 29.54108a.85047.85047 0 0 0 -.85175-.84375h-.82769a.84361.84361 0 0 0 -.84375.84375v.85174h2.52319z"/><path d="m32 2a30 30 0 1 0 30 30 30.03391 30.03391 0 0 0 -30-30zm0 58.29126a28.29126 28.29126 0 1 1 28.29126-28.29126 28.32323 28.32323 0 0 1 -28.29126 28.29126z"/></svg>