<svg id="Layer_1" enable-background="new 0 0 512 512" viewBox="0 0 512 512" xmlns="http://www.w3.org/2000/svg" fill="#8c6c17"><path d="m136.272 282.464c.178-3.832 3.429-6.795 7.261-6.617s6.795 3.429 6.617 7.261-3.428 6.795-7.26 6.617c-3.833-.178-6.795-3.428-6.618-7.261zm301.935 108.58c-1.967 4.457-5.542 7.878-10.066 9.632l-20.844 8.081c-2.126.824-4.346 1.235-6.564 1.235-2.501 0-5.001-.522-7.364-1.565-4.457-1.967-7.878-5.542-9.631-10.067l-1.024-2.642-13.429 5.603c.462 4.742-.472 9.571-2.812 13.825-2.883 5.243-7.52 9.146-13.153 11.108 1.308 5.579.652 11.62-2.298 16.982-4.488 8.161-13.038 12.69-21.787 12.434-.133 3.601-1.081 7.215-2.923 10.563-3.099 5.634-8.225 9.721-14.435 11.508-3.032.873-6.136 1.142-9.169.822-.253 3.3-1.193 6.593-2.883 9.665-3.099 5.634-8.442 9.864-14.66 11.607-2.15.603-4.33.901-6.49.901-4.05 0-8.031-1.049-11.614-3.106l-4.131-2.373c-3.025 3.609-7.034 6.278-11.663 7.68-2.362.716-4.773 1.07-7.169 1.07-3.972 0-7.9-.974-11.491-2.894-4.669-2.498-8.266-6.338-10.469-10.861-6.179 2.021-13.117 1.596-19.193-1.654-4.105-2.195-7.395-5.466-9.629-9.334-6.629 2.866-14.444 2.802-21.277-.852-5.757-3.079-9.975-8.231-11.877-14.509-.841-2.776-1.184-5.62-1.038-8.428-3.322-.25-6.617-1.178-9.668-2.81-11.916-6.373-16.425-21.252-10.052-33.168l5.143-9.616c-1.1-2.949-1.684-6.044-2.214-8.896-.708-3.803-1.509-8.113-3.135-8.744-.937-.363-3.053-1.241-10.267-4.446l-1.386 3.136c-1.961 4.438-5.544 7.851-10.087 9.609-2.141.829-4.372 1.242-6.597 1.242-2.496 0-4.985-.52-7.332-1.558l-20.447-9.038c-4.438-1.961-7.851-5.544-9.609-10.087s-1.646-9.49.315-13.929l46.946-106.217c1.961-4.438 5.544-7.851 10.088-9.609 4.544-1.759 9.49-1.647 13.929.316l20.447 9.037c4.438 1.962 7.851 5.545 9.609 10.088s1.646 9.49-.316 13.929l-2.669 6.039 11.396 5.257c.195.09.386.187.572.292 6.269 3.527 12.854 2.238 23.08-.158 12.749-2.987 28.383-6.637 46.731 3.656 25.402-15.169 44.883-7.223 59.314-1.324 9.996 4.085 15.921 6.256 21.446 3.383l9.912-5.306-2.509-6.473c-1.754-4.524-1.637-9.471.33-13.928s5.542-7.877 10.066-9.632l20.845-8.081c9.362-3.63 19.931 1.035 23.56 10.396l41.977 108.278c1.75 4.528 1.632 9.474-.335 13.931zm-325.299-6.58 4.648-10.516c0-.001.001-.002.001-.002 0-.001.001-.001.001-.002l42.296-95.696c.315-.715.153-1.363.028-1.687s-.441-.912-1.156-1.228l-20.447-9.037c-1.095-.483-2.43.032-2.915 1.127l-46.946 106.217c-.315.714-.153 1.363-.028 1.686s.441.913 1.156 1.229l20.447 9.038c.715.315 1.363.153 1.686.028.324-.126.913-.443 1.229-1.157zm53.037 53.489 13.076-22.631c1.662-3.967-.009-8.762-3.815-10.793-4.14-2.209-9.309-.646-11.519 3.486l-3.035 5.675c-.004.008-.009.016-.013.024l-7.13 13.33c-2.212 4.136-.646 9.301 3.49 11.514 2.858 1.529 6.329 1.254 8.946-.605zm25.183 22.801 14.644-28.36c.561-3.539-1.194-7.182-4.368-8.876-2.891-1.543-6.391-1.25-9.014.647l-13.284 22.991-3.013 5.633c-1.063 1.987-1.283 4.286-.621 6.473.663 2.188 2.123 3.977 4.11 5.041 4.13 2.21 9.308.618 11.546-3.549zm30.022 11.529 12.891-24.777c.557-3.536-1.197-7.174-4.369-8.867-3.158-1.684-7.125-1.147-9.751 1.227l-13.898 26.914c-.068 3.185 1.628 6.194 4.466 7.712 3.624 1.937 8.124.975 10.661-2.209zm30.516 11.234 9.759-18.249c1.535-2.869 1.265-6.439-.686-9.093-.741-1.008-1.683-1.822-2.801-2.419-3.157-1.687-7.127-1.147-9.755 1.235l-12.494 24.013c-.171 3.262 1.565 6.453 4.463 8.003 1.987 1.063 4.287 1.283 6.474.621 2.187-.665 3.977-2.124 5.04-4.111zm30.939-13.967c-.359-.201-.688-.433-1.003-.678l-3.812-2.158c-.473 2.102-1.216 4.156-2.255 6.099l-4.596 8.594 4.091 2.35c1.739.999 3.804 1.238 5.817.673 2.109-.591 3.917-2.017 4.959-3.912 2.126-3.866.69-8.787-3.201-10.968zm69.987-69.444c-.743-1.529-1.922-2.786-3.411-3.635l-55.437-31.597c-8.514-4.852-19.827-.271-32.928 5.032-19.699 7.974-46.676 18.894-69.108-9.969-1.748-2.245-2.446-5.146-1.909-7.952.541-2.814 2.267-5.253 4.738-6.696 15.475-9.032 28.53-18.876 38.805-29.259 1.85-1.869 3.711-3.635 5.578-5.304-10.073-3.293-19.042-1.195-28.403.998-10.486 2.457-22.36 5.239-34.277-1.311l-10.89-5.024-29.954 67.771c6.338 2.816 8.752 3.841 9.588 4.165 7.316 2.84 10.264 9.091 11.812 14.874 7.358-5.32 17.41-6.343 25.945-1.787 6.494 3.466 10.819 9.499 12.342 16.223 4.687-.445 9.513.449 13.855 2.767 5.354 2.857 9.278 7.466 11.332 12.821 5.584-1.26 11.588-.556 16.937 2.299 5.354 2.857 9.278 7.464 11.331 12.819 5.589-1.262 11.592-.556 16.941 2.302 2.755 1.472 5.146 3.412 7.133 5.77.084.044.17.08.253.127l28.561 16.167c1.831 1.016 3.971 1.25 6.026.659 2.089-.601 3.808-1.966 4.841-3.844 2.113-3.841.663-8.75-3.233-10.943-.361-.203-.692-.437-1.008-.684l-39.946-22.478c-3.85-2.167-5.215-7.045-3.049-10.895 2.167-3.851 7.044-5.215 10.896-3.049l50.154 28.222c3.877 2.128 8.765.708 10.897-3.169 2.113-3.841.662-8.75-3.234-10.943-.001 0-.002-.001-.003-.002-11.761-6.587-25.088-14.052-38.203-21.559-3.834-2.195-5.163-7.083-2.968-10.917 2.195-3.833 7.082-5.165 10.917-2.968 13.053 7.473 26.35 14.92 38.082 21.492.002.001.005.002.008.004 1.81 1.014 3.934 1.25 5.98.664 2.104-.602 3.833-1.972 4.871-3.858 1.246-2.272 1.297-4.943.138-7.333zm24.336-19.311-26.831-69.211-8.272 4.427c-12.455 6.479-23.899 1.8-34.967-2.723-14.482-5.92-28.161-11.51-48.625 2.529-.001 0-.001.001-.002.001-.012.008-.023.016-.034.024-4.439 3.037-8.971 6.883-13.482 11.442-9.801 9.905-21.807 19.301-35.757 27.992 12.815 12.196 26.236 7.741 45.855-.201 15.538-6.29 31.605-12.793 46.854-4.102l55.438 31.598c2.027 1.156 3.858 2.576 5.453 4.219zm46.691 2.105-41.977-108.278c-.335-.864-1.195-1.405-2.084-1.405-.26 0-.522.046-.775.144l-20.844 8.081c-.728.282-1.071.856-1.211 1.173s-.332.957-.05 1.685l41.977 108.278c.282.728.856 1.071 1.173 1.211s.958.333 1.685.05l20.844-8.081c1.117-.433 1.695-1.742 1.262-2.858zm-50.526-100.241c-3.826 0-6.946 3.12-6.946 6.946s3.12 6.946 6.946 6.946 6.946-3.12 6.946-6.946-3.12-6.946-6.946-6.946zm-282.62-168.168c.002-.049.009-.097.013-.146.014-.228.036-.456.071-.683.011-.074.028-.147.041-.22.036-.198.076-.395.127-.591.023-.088.051-.175.076-.262.052-.175.108-.349.172-.522.038-.102.08-.201.122-.301.064-.152.132-.303.206-.452.055-.111.113-.22.173-.328.038-.068.069-.139.109-.206l44.969-75.868c.016-.027.037-.051.053-.078.335-.55.729-1.052 1.176-1.497.058-.058.119-.112.179-.168.17-.159.346-.311.528-.454.075-.059.148-.118.225-.174.221-.162.449-.313.685-.451.03-.018.058-.039.088-.056.264-.15.538-.279.817-.398.085-.036.172-.067.258-.101.214-.083.431-.156.653-.22.085-.025.169-.05.254-.072.61-.155 1.24-.239 1.882-.245.028 0 .055-.005.082-.005.05 0 .098.009.148.01.244.005.489.021.736.048.092.01.184.019.276.033.251.037.501.088.752.149.062.015.125.025.186.042.013.003.026.005.038.009 22.718 6.295 30.602 3.307 40.583-.476 9.698-3.676 20.567-7.79 43.103-4.339 4.105-10.786 14.543-18.469 26.746-18.469s22.641 7.683 26.744 18.465c22.534-3.451 33.405.663 43.103 4.339 9.982 3.783 17.867 6.771 40.584.476.013-.004.026-.005.039-.009.059-.016.12-.025.18-.04.255-.063.509-.114.764-.152.087-.013.174-.021.261-.031.254-.029.507-.045.759-.05.045-.001.089-.009.134-.009.025 0 .049.005.075.005.648.006 1.285.091 1.9.248.077.02.152.043.228.065.232.067.46.144.685.231.078.03.156.058.233.091.284.121.563.253.832.406.018.01.034.022.052.032.25.145.49.305.723.476.071.052.14.108.21.162.188.148.369.304.544.468.056.053.114.104.169.159.449.447.845.951 1.181 1.503.016.026.036.049.052.076l44.969 75.868c.04.067.07.138.108.206.06.109.119.218.174.33.074.149.142.3.205.451.042.1.084.2.122.301.065.173.121.347.172.522.026.087.054.174.076.262.051.196.091.393.127.591.013.074.03.146.041.22.034.226.056.453.07.68.003.05.011.099.013.15.013.283.012.565-.005.846 0 .007-.002.015-.002.022-.017.267-.049.533-.092.796-.003.019-.003.038-.007.057-4.433 25.779-26.661 44.49-52.853 44.49s-48.42-18.711-52.853-44.49c-.003-.019-.003-.038-.007-.057-.044-.263-.075-.529-.092-.796 0-.007-.002-.015-.002-.022-.017-.281-.018-.564-.005-.847.002-.049.009-.097.013-.146.014-.228.036-.456.071-.683.011-.074.028-.147.041-.22.036-.198.076-.395.127-.591.023-.088.051-.175.076-.262.052-.175.108-.349.172-.522.038-.102.08-.201.122-.301.064-.152.132-.303.206-.452.055-.111.113-.22.173-.328.038-.068.069-.139.109-.206l35.78-60.365c-3.009.346-5.761.502-8.298.502-10.434 0-17.295-2.601-24.021-5.15-8.727-3.307-17.018-6.443-36.173-3.304-2.162 10.358-9.943 18.671-19.997 21.607l.025 100.4c10.548-9.711 24.616-15.654 40.049-15.654 32.637 0 59.19 26.553 59.19 59.19s-26.553 59.189-59.19 59.189c-26.714 0-49.341-17.794-56.678-42.148h-59.973c-2.755 0-5.316-1.418-6.779-3.753s-1.621-5.258-.419-7.737c13.002-26.818 38.953-44.339 67.801-47.108l-.025-102.375c-10.061-2.933-17.849-11.249-20.012-21.611-19.155-3.138-27.447-.003-36.173 3.304-6.726 2.549-13.59 5.15-24.021 5.15-2.538 0-5.289-.156-8.298-.502l35.779 60.365c.039.067.07.136.107.203.061.111.12.222.176.335.073.147.139.295.202.444.043.103.086.205.125.309.063.17.118.341.17.514.027.09.055.179.078.27.05.194.09.389.125.584.014.076.031.15.042.226.034.224.055.449.07.675.003.052.011.103.013.154.013.283.012.565-.005.846 0 .007-.002.015-.002.022-.017.267-.049.533-.092.796-.003.019-.003.038-.007.057-4.433 25.779-26.661 44.49-52.853 44.49s-48.42-18.711-52.853-44.49c-.003-.019-.003-.038-.007-.057-.044-.263-.075-.529-.092-.796 0-.007-.002-.015-.002-.022-.022-.283-.022-.566-.01-.849zm278.095-59.812-30.927 52.179h61.855zm34.192 68.178h-68.385c6.004 13.077 19.168 21.846 34.192 21.846s28.189-8.769 34.193-21.846zm-157.841 86.188c-.006-.348-.026-.692-.026-1.042 0-9.224 2.123-17.96 5.903-25.75-19.426 1.512-37.346 11.283-49.119 26.791h43.242zm15.973-1.041c0 23.815 19.375 43.189 43.19 43.189s43.19-19.375 43.19-43.189-19.375-43.19-43.19-43.19-43.19 19.375-43.19 43.19zm-17.5-171.396c0 6.952 5.656 12.608 12.609 12.608 6.952 0 12.608-5.656 12.608-12.608s-5.656-12.608-12.609-12.608c-6.952 0-12.608 5.656-12.608 12.608zm-65.767 86.249h-68.385c6.004 13.077 19.168 21.846 34.192 21.846s28.189-8.769 34.193-21.846zm-3.265-16-30.927-52.178-30.927 52.178zm99.999 108.237 14.038 14.037c1.558 1.558 3.606 2.343 5.658 2.343 1.922 0 3.847-.689 5.375-2.076l34.095-30.941c3.271-2.969 3.517-8.029.548-11.3-2.969-3.272-8.028-3.518-11.301-.548l-28.45 25.819-8.648-8.648c-3.124-3.124-8.189-3.124-11.313 0-3.127 3.124-3.126 8.19-.002 11.314z"/></svg>