<svg clip-rule="evenodd" fill-rule="evenodd" height="512" stroke-linejoin="round" stroke-miterlimit="2" viewBox="0 0 64 64" width="512" xmlns="http://www.w3.org/2000/svg" fill="#8c6c17"><g transform="translate(-493 -263)"><path d="m506.67 293.513h-4.17c-.663 0-1.299-.264-1.768-.733s-.732-1.104-.732-1.767v-.003c0-.663.263-1.299.732-1.768.469-.468 1.105-.732 1.768-.732h7.122c-.05-.203-.076-.414-.076-.627 0-.001 0-.002 0-.003 0-.696.277-1.365.77-1.857.41-.411.942-.671 1.511-.747l.045-.006c.414-5.602 4.335-10.23 9.575-11.695v-1.019c0-1.412 1.145-2.556 2.556-2.556h1.994c1.411 0 2.556 1.144 2.556 2.556v1.019c5.24 1.465 9.161 6.093 9.575 11.695l.045.006c.569.076 1.101.336 1.511.747.896.895.744 2.284.694 2.487h7.122c.663 0 1.299.264 1.768.732.469.469.732 1.105.732 1.768v.003c0 .663-.263 1.298-.732 1.767s-1.105.733-1.768.733h-4.17l2.7 7.125h.826c.552 0 1 .448 1 1 0 3.249-2.634 5.883-5.883 5.883s-5.883-2.634-5.883-5.883c0-.552.448-1 1-1h.826l2.7-7.125h-11.3c-.397.684-.953 1.266-1.618 1.694v19.184h11.859c.827 0 1.621.329 2.206.914s.914 1.378.914 2.205v1.49c0 .552-.448 1-1 1h-33.354c-.552 0-1-.448-1-1v-1.49c0-.827.329-1.62.914-2.205s1.379-.914 2.206-.914h11.859v-19.184c-.665-.428-1.221-1.01-1.618-1.694h-11.3l2.7 7.125h.826c.552 0 1 .448 1 1 0 3.249-2.634 5.883-5.883 5.883s-5.883-2.634-5.883-5.883c0-.552.448-1 1-1h.826zm13.341-3.003h-17.511c-.133 0-.26.053-.354.147-.093.093-.146.221-.146.353v.003c0 .132.053.259.146.353.094.094.221.147.354.147h17.511zm-8.281-3.073c-.273.272-.214.675 0 .889.098.098.225.161.361.179.027.003 25.735.005 25.735.005.028 0 .056-.002.083-.005.136-.018.263-.081.361-.179.118-.117.184-.277.184-.443 0-.001 0-.002 0-.003 0-.166-.066-.326-.184-.443-.098-.098-.225-.16-.361-.179-.027-.003-.055-.005-.083-.005 0 0-25.708.002-25.735.005-.136.019-.263.081-.361.179zm9.717-11.771c-4.121 1.382-7.169 5.104-7.567 9.587h7.567zm5.106-2.485v-.625c0-.307-.249-.556-.556-.556h-1.994c-.307 0-.556.249-.556.556v.625c.509-.06 1.027-.091 1.552-.091h.002c.525 0 1.043.031 1.552.091zm9.567 12.072c-.398-4.483-3.446-8.205-7.567-9.587v9.587zm-6.131 5.257v1.003h17.511c.133 0 .26-.053.354-.147.093-.094.146-.221.146-.353v-.003c0-.132-.053-.26-.146-.353-.094-.094-.221-.147-.354-.147zm-4.989 3.49c1.649 0 2.989-1.339 2.989-2.989 0-.17-.015-.338-.042-.501-.982 0-4.912 0-5.894 0-.027.163-.042.331-.042.501 0 1.65 1.34 2.989 2.989 2.989zm.698 20.391.001-18.391h-.699-.698v18.391zm13.859 2h-29.114c-.297 0-.582.118-.792.328s-.328.495-.328.791v.49h31.354v-.49c0-.296-.118-.581-.328-.791s-.495-.328-.792-.328zm-16.11-31.138h3.106v-10.056c-1.035-.258-2.071-.257-3.106 0zm18.526 10.323s-1.827 4.821-1.827 4.821h3.654zm-33.946 0s-1.827 4.821-1.827 4.821h3.654zm-3.753 7.062c.441 1.66 1.954 2.883 3.753 2.883s3.312-1.223 3.753-2.883h-3.753zm33.946 0c.441 1.66 1.954 2.883 3.753 2.883s3.312-1.223 3.753-2.883h-3.753z"/></g></svg>