<svg id="Layer_1" enable-background="new 0 0 500 500" viewBox="0 0 500 500" xmlns="http://www.w3.org/2000/svg" fill="#8c6c17"><path clip-rule="evenodd" d="m303.479 273.816c-5.585 9.531-98.962 7.218-108.293 1.362.189-.361.604-.445 1.069-.663-.42-.643.037-.352.046-1.015.005-.355-1.723-.519 1.44-1.706 17.864-8.136 38.599-4.252 57.746-6.426 13.145.008 40.647-4.873 47.992 8.448zm0-19.376c-6.259 9.627-98.097 7.16-108.293 1.36.205-.391.605-.429 1.069-.67-.44-.512.044-.435.046-1.016.001-.337-1.723-.517 1.44-1.706 14.653-7.426 33.091-4.164 48.803-6.073 12.737.096 51.492-5.797 56.935 8.105zm8.367-72.206c.001.002-.15 1.198-.68 1.255-.86.092-.013 1.609-.8 2.419-.471.545-3.159 4.402-3.737 4.34-9.059 8.272-20.266 7.132-27.35-3.614 10.585-.165 22.386-2.392 32.551-4.896-.018.159-.024.318.016.496zm-31.619-11.903c4.696-5.914 8.564-16.147 12.749-22.716 4.146 9.038 9.123 18.895 15.27 26.614-8.521-1.903-20.026-2.317-28.756-2.571zm-62.976-.997c.078.185.173-.166.663.804.312.618.946.363 2.183 3.058.177.371.406.706.68 1.034-8.515-1.901-20.025-2.317-28.75-2.571 4.465-6.044 9.482-17.466 13.475-24.042 3.381 6.303 7.2 16.388 11.749 21.717zm7.12 12.9c.001.002-.148 1.199-.669 1.255-.865.092-.014 1.59-.806 2.419-.468.548-3.159 4.404-3.737 4.34-9.07 8.276-20.267 7.126-27.356-3.614 10.894-.089 22.216-2.425 32.562-4.896-.028.159-.028.318.006.496zm93.149-13.5c-1.565-10.273-8.632-22.716-13.332-32.067-3.557-5.929-7.836-18.489-16.213-10.637-10.749-5.318-25.66-2.929-37.322-2.307-8.156.619-16.576.771-25.299 1.378-4.248.76-5.967-.913-13.543 2.695-2.006-5.176-10.122-5.509-12.338-.167-1.136 2.504-2.545 6.053-3.4 8.607-4.222 9.73-9.236 19.833-12.401 30.359 0 0-.508 5.239-.508 5.239-14.881.178-6.408 20.515-.36 26.87 14.528 18.553 55.327 8.401 45.432-18.301-.709.572.71-.014-1.406.84.456 0-1.353 1.127-2.183.433.942-.49 2.219-.88 3.172-1.297-.262-.474.14-.582.074-1.06 7.876-10.75-6.278-32.18-11.481-43.163.148.848 13.471 1.009 14.418 1.123 0 0 13.487 1.138 13.487 1.138-2.805 26.835-5.037 56.095.292 83.003-8.976.87-18.797-.524-25.379 5.69-1.962 1.264-.632 1.113-.897 2.165l.04.565c-.866.676-.759.522-.12 1.583.71 1.179 2.018.021 2.24.953.19.795 1.106-.35 1.691.062 1.087.765 3.677.71 3.88 1.114 14.366 1.713 32.351 3.209 46.66.308.319-.481.636.029 1.068-.547.305-.431 1.727-.091 2.869-.776.885-.531 1.687.056 1.989-.549.688-1.38 1.145-.631 1.389-1.475.191-.66.419-.272.48-.565.097-.487.246-.592.406-.803-3.01-11.626-17.436-9.085-26.465-8.677 5.098-14.182 1.701-29.477 1.567-43.844-1.873-12.758.762-25.823-3.687-38.585 8.545-.409 22.844 1.035 30.853-1.909 0 0 .423-.185.423-.185-3.6 8.598-9.486 20.337-12.464 30.651 0 0-.514 5.239-.514 5.239-14.871.153-6.444 20.503-.372 26.87 14.555 18.551 55.314 8.4 45.438-18.301-.71.58.475.09-1.406.84.457 0-1.352 1.128-2.183.433.947-.488 2.222-.877 3.183-1.297-.288-.481.16-.677.057-1.06 2.929-2.4 2.135-7.102 2.165-10.586zm-3.223 12.509c-.023.009-.029.018-.046.027-.005-.018.006-.018.046-.027zm-87.48 0h.012c-.017.009-.034.018-.051.027-.006-.018.005-.018.039-.027zm223.958 149.802-3.217 1.397c-.96-14.545 4.509-32.988-17.539-29.901-12.586-.222-26.241 1.869-38.294 4.666-6.242 1.15-3.154 1.344-2.938 1.704-.492.914-.77.665-.086 1.025-.57.128-1.768.267-2.177.663 3.073 2.597 8.688.746 9.589 1.864.659.817 3.828-.349 5.92.071 9.547 1.002 23.083 1.812 32.756 1.777l-1.16 38.178c-13.599.365-31.211.422-44.866.502.038-13.226-2.236-27.119-3.051-40.096-.629-.194-.795-.768-.566-1.174.302-.531-.204-1.093.354-1.335.589-.255-.201-.431 1.023-1.147-9.636-8.056-11.051 17.579-11.898 22.936-.519-.283-.099-.7-1.063-.989-2.941-.88-2.777-.566-5.44-2.016-1.529-38.452 16.167-47.923 51.851-45.467 29.122.121 33.227 20.892 34.88 45.237-1.369.735-2.585 1.623-4.078 2.105zm-54.495-79.583c8.448-31.977 48.404-6.071 25.99 17.673-5.003-.392-14.405 1.147-18.898-.08-3.978-5.172-8.269-10.58-7.092-17.593zm-60.49-147.204.629-.018c-.034.239-.097.442-.194.601-.149-.203-.292-.389-.435-.583zm-.617.027c.034 0 .074-.009.108-.009-.017.114-.057.22-.08.343-.011-.113-.017-.22-.028-.334zm-2.069 12.67c-.107-3.518-.217-8.93.371-12.538-55.528.308-113.849 3.068-169.485 2.076 5.308 59.323 4.554 121.491 4.772 181.364.002 2.178.816 4.003 3.223 4.692l45.928-.027c35.264.078 71.957-.57 107.247.308 7.792.566 4.585-12.22 5.281-16.796-.08-42.167 1.025-118.103 2.663-159.079zm-75.13 216.743c11.719 6.859 10.724 21.856 2.16 30.624-4.378.014-11.969.289-16.412.299-2.022.156-1.851.286-2.48-.379-15.176-13.615-3.762-39.206 16.732-30.544zm17.292 48.913c16.411 8.681 15.254 25.718 17.453 41.521-2.093 1.35-4.991 2.51-7.298 3.498-1.167-14.522 4.659-32.976-17.539-29.899-12.589-.211-26.224 1.85-38.299 4.666-6.207 1.16-3.161 1.32-2.931 1.705-.498.918-.768.656-.086 1.016-.571.139-1.767.275-2.177.663 2.862 2.564 8.695.759 9.595 1.873.654.81 3.824-.35 5.915.072 9.549.997 23.087 1.812 32.762 1.774l-1.166 38.179c-13.597.365-31.208.42-44.86.504.01-13.215-2.226-27.081-3.057-40.097-.623-.194-.795-.77-.566-1.176.308-.542-.211-1.089.354-1.333.586-.253-.2-.433 1.023-1.15-9.63-8.056-11.065 17.615-11.898 22.937-.534-.325-.117-.719-1.063-.989-2.895-.825-2.91-.66-5.44-2.013-.301-27.851 7.097-46.934 38.844-45.212 9.829-.197 20.643-1.615 30.434 3.461zm-121.168-290.36c-18.133.084-17.149 7.264-19.887-12.963 76.104 1.608 153.21 1.483 229.301.522.052 1.089.223 4.562-.354 5.159-.948 3.836 1.955 8.339-4.721 8.615-66.955-2.746-137.319-2.758-204.339-1.333zm-59.815 146.505c12.246 4.733 12.288 21.436 3.343 29.52-3.965-.131-14.974.565-18.436.214-15.284-11.986-4.055-36.134 15.093-29.734zm22.63 48.668c17.059 11.437 14.219 24.959 16.31 43.074l-8.475 5.496c-2.673-8.379 2.547-32.379-11.446-29.591 4.679 2.816.751 8.941.309 12.855-2.605 9.408-2.433 23.014-2.778 33.223-14.79.131-31.326.308-46.072.531-.709-13.072-.157-26.734-.777-39.77 14.28.16 30.241-1.365 44.117-4.816 6.242-1.144 3.152-1.338 2.938-1.707.559-.977.726-.649.086-1.016.541-.117 1.796-.292 2.177-.66-3.095-2.615-8.684-.747-9.589-1.875-34.61.913-55.69-16.436-52.598 29.759l-5.08-3.427c-1.103-27.05 8.865-47.985 39.033-46.565 10.793.027 23.107-2.024 31.845 4.489zm288.602-237.604c-.006-.016-.006-.043-.006-.061l.006.078c0-.007 0-.017 0-.017zm62.038 263.316c.506-19.757-13.368-38.003-32.562-42.704 13.804-16.525 2.84-45.174-18.71-47.925 1.78-16.932 2.272-38.928 3.046-55.718-.029-9.942-12.235-7.669-18.705-7.58-19.178.29-40.559-.826-58.969 3.754-.823-13.708-3.139-44.953-4.48-58.732 19.989-.681 38.573 3.06 31.305-24.483 19.615-1.02 50.773 6.286 51.62-22.417.828-9.724-1.884-20.958-13.39-20.747-101.302 2.203-210.117-2.336-310.711 7.21.863.267 2.297.09 2.989.452-1.719 1.014-2.325.608-.274 1.025-1.556.108-5.648.281-6.852.663 96.743 5.789 216.816 2.955 313.655 5.08.167 5.474.757 14.21-7.024 14.084-56.583.003-126.424.335-183.274.284-31.942-.472-64.78 1.603-96.738 2.121-10.669-.543-27.22 5.052-29.728-9.933-.099-1.538-.158-7.363-.646-8.181-.743-1.867 2.04-4.815 3.754-4.817-10.454-1.492-10.136 14.483-7.933 21.251 6.509 16.531 30.31 10.945 44.649 13.253-8.747 28.413 9.703 27.143 31.631 27.276-3.479 18.268-4.381 37.968-5.486 56.443-18.081-6.353-40.499-3.193-59.393-2.82-6.181-.179-14.376-.154-13.583 8.176 1.824 18.362-1.292 36.791 4.851 55.117-22.51 1.786-35.471 29.03-20.55 46.653-25.421 6.318-38.554 33.591-32.076 57.893.856 1.956-1.128 7.716 3.703 9.358 3.878 1.045 9.821 3.586 13.206 3.471l-.406 13.811c-.389.068-.755-.108-1.217.317-.462.426-2.77.088-4.606.779-1.403.528-2.673-.067-3.172.547-1.13 1.392-1.833.634-2.217 1.475-.304.664-.66.27-.76.565-.16.487-.4.592-.646.803 6.465 12.207 25.566 8.719 37.773 9.033 11.054.044 31.525-.359 42.752-.346 5.129-.267 4.232-2.736 6.8-2.42 4.012-.606 7.585-2.735 11.304-4.232 2.913-1.172 1.352-1.366 1.343-1.705-.018-.668.445-.391.034-1.025.435-.211.827-.308.989-.663-1.127-2.347-2.862-.802-4.384-1.873-.299-.8-1.752.353-2.703-.063-1.6-.7-5.245-.726-6.035-.992 0-4.64-.004-8.567-.48-13.172 4.02-1.92 3.458-.534 4.577-1.069 4.867-2.326 3.087-1.564 8.618-3.083 5.979-1.273 3.344-9.096 4.532-13.572 3.918-22.26-8.049-45.695-30.053-53.131 14.154-17.418 2.696-44.638-19.63-47.191 1.254-16.215 1.838-33.024 2.686-49.039 19.503-.192 39.178.545 58.501-3.023 3.746 147.535-30.912 138.204 87.006 135.567.103 3.582 1.791 7.11 2.04 11.257-21.565 3.008-33.278 33.081-17.092 48.606-25.52 7.063-34.48 32.238-30.201 56.408.632 2.108.108 7.81 3.531 7.741 0 .001 12.418 2.103 12.418 2.103-.051 5.15-.392 12.574-.497 17.785-3.517.664-7.165 2.774-10.481 4.101-2.934 1.174-1.334 1.363-1.332 1.696.003.567-.45.517-.046 1.025-.442.214-.826.307-.989.663 1.28 2.431 2.784.776 4.383 1.873.299.8 1.756-.353 2.703.063 1.713.753 5.904.711 6.195 1.121.558.785 1.02.103 2.514.426.389.128 1.459 1.43 4.675 1.509 25.227-.76 52.213 2.076 76.902-3.508 1.178-1.405 1.824-.621 2.217-1.474.303-.658.664-.279.76-.556.16-.496.406-.603.651-.815-2.308-5.622-8.528-7.629-14.024-8.42l-.343-13.483c5.908-1.593 18.891.94 18.738-7.599 4.94-26.294-2.592-54.427-31.356-61.841 13.252-15.705 3.702-43.586-16.778-47.581 1.344-2.946.871-7.735.617-11.141 117.862-.796 81.306 13.13 85.286-137.036l4.257 1.688c4.619 1.166 1.528 1.477 9.543 2.184 15.306 1.137 34.219.877 49.552-.159.254 14.517.19 25.924 1.828 41.007 0 0 2.286 7.847 2.286 7.847-23.308.361-38.308 32.53-20.876 49.189-22.846 6.002-33.893 29.215-30.732 51.3 1.235 16.887 2.116 11.678 16.48 14.949-.051 5.152-.391 12.558-.497 17.787-3.381.624-7.278 2.815-10.481 4.101-2.924 1.174-1.349 1.35-1.343 1.703.012.694-.446.373-.034 1.018l-.989.663c1.277 2.425 2.763.772 4.383 1.872.299.795 1.757-.353 2.703.061 1.77.774 5.911.71 6.195 1.123.534.777 1.051.107 2.52.424.378.126 1.464 1.435 4.669 1.511 25.164-.802 52.352 2.115 76.902-3.51 1.122-1.382 1.823-.617 2.217-1.474.296-.645.665-.283.76-.556.16-.493.394-.601.646-.813-2.325-5.657-8.504-7.608-14.012-8.42l-.349-13.483c23.524-2.249 18.192-1.549 19.95-26.74z" fill-rule="evenodd"/></svg>