<svg id="Capa_1" enable-background="new 0 0 512 512" height="512" viewBox="0 0 512 512" width="512" xmlns="http://www.w3.org/2000/svg" fill="#8c6c17"><g><path d="m487.841 482v-60h-41.472v-232.244l34.303 27.081 18.59-23.547-101.773-80.426v-112.864h-89.615v42.193l-53.445-42.193-242.582 196.106 18.859 23.33 34.925-28.233v230.797h-41.472v60h-24.159v30h512v-30zm-149.968-452h29.661l-.103 59.213-29.558-23.335zm-242.242 136.951 159.02-128.553 161.718 127.673v255.929h-320.738zm-41.472 315.049v-30h403.682v30z"/><path d="m358.299 221.086v-44.034l-86.497-31.404v-33.38h-30v33.315l-88.101 31.403v44.101h-30v43.881c0 24.813 20.187 45 45 45s45-20.187 45-45v-43.881h-30v-22.944l58.101-20.71v176.497h-71.497v30h171.391v-30h-69.894v-176.366l56.497 20.511v23.011h-30v43.881c0 24.813 20.187 45 45 45s45-20.187 45-45v-43.881zm-174.598 43.881c0 8.271-6.729 15-15 15s-15-6.729-15-15v-13.881h30zm174.598 0c0 8.271-6.729 15-15 15s-15-6.729-15-15v-13.881h30z"/></g></svg>