<svg clip-rule="evenodd" fill-rule="evenodd" height="6.827in" image-rendering="optimizeQuality" shape-rendering="geometricPrecision" text-rendering="geometricPrecision" viewBox="0 0 6.82666 6.82666" width="6.827in" xmlns="http://www.w3.org/2000/svg" fill="#8c6c17"><g id="Layer_x0020_1"><g id="_460484984"><path id="_460486448" d="m5.21241 6.31861h.00012598zm-.976126-2.72528c-.091126 0-.168488.0558346-.197374.142083-.0680315.204307-.185976.324587-.350555.3575-.0204134.00416535-.0340315.0223622-.0322244.0431969.086811 1.00403.41472 1.64056 1.09639 2.12833.127795.0915236.293193.0915236.42111 0h.00002756c.6815-.48778 1.00942-1.12431 1.09636-2.12833.00182677-.0208346-.011811-.0390276-.0323661-.0431969-.164555-.0329134-.282496-.153193-.350551-.3575-.0288819-.086248-.106252-.142083-.197224-.142083h-1.45359zm.726815 2.87347c-.100441 0-.20072-.031252-.28822-.0938858-.707063-.506114-1.06222-1.19236-1.15167-2.22528-.00761417-.0881929.0520827-.167917.139028-.185417.115858-.0231969.197638-.11111.25028-.26889.0472323-.141803.174303-.233335.323748-.233335h1.45361c.149311 0 .27639.0915315.323752.233335.0525276.15778.134445.245693.25028.26889.086811.0175.146528.0970827.138886.185417-.0894173 1.03292-.444583 1.71917-1.15167 2.22528-.0874724.0626339-.187776.0938858-.288031.0938858z"/><path id="_460486376" d="m4.08225 4.34806c.101531.725.366929 1.1993.880823 1.575.513898-.375697.779165-.85.880693-1.575-.118453-.0861142-.213748-.20528-.283886-.35472l-1.19375-.00000394c-.070126.149445-.165417.26861-.283878.354724zm.880846 1.71861c-.0189094 0-.0376654-.00638583-.0554449-.0191693-.563465-.403193-.860551-.934441-.963189-1.7225-.0031811-.0254134.00833071-.0505512.0298583-.0645787.123335-.0798622.219862-.200972.287224-.359724.0104252-.0247205.0345827-.0406969.0613898-.0406969h1.28028c.0266575 0 .0509606.0159764.0613819.0406969.0672441.158752.163748.279862.287083.359724.0215354.0140236.0331929.0391654.0298622.0645787-.102638.788059-.399724 1.31931-.963197 1.7225-.017752.0127835-.0365276.0191693-.055252.0191693z"/><path id="_460486304" d="m2.21337 3.4925h1.35653v-.10639c0-.0586102-.0476732-.106252-.10628-.106252h-1.144c-.058626 0-.10628.0476417-.10628.106252l.00002756.10639zm1.42319.133331h-1.48988c-.036811 0-.0666693-.0298622-.0666693-.0666654l.00001575-.173055c0-.132083.107484-.239583.239567-.239583h1.14403c.132091 0 .239579.1075.239579.239583l.00001181.173055c0 .0368031-.0298701.0666693-.0666535.0666654z"/><path id="_460486232" d="m3.1335 3.27986c-.036815 0-.0666772-.0298583-.0666772-.0666654l.00001968-.348335h-.35028v.348335c0 .0368071-.0298819.0666654-.066685.0666654-.0369409 0-.0666693-.0298583-.0666693-.0666654l.00000787-.415c0-.0368071.0297126-.0666693.0666614-.0666693h.483622c.036811 0 .0666496.0298661.0666496.0666693l.00000394.415c0 .0368071-.0298622.0666654-.0666535.0666654z"/><path id="_460486160" d="m2.64991 2.86486c-.0189055 0-.0376732-.00791732-.0508622-.0234685-.0591693-.0694449-.0918071-.157917-.0918071-.249307.00001181-.0913898.0326378-.179862.0918071-.249307.0240512-.0280591.0659724-.0313898.0940276-.0075.0280551.0238858.0313898.0659724.0075.0940276-.0387283.0452756-.06.103059-.06.16278.00002362.0597205.021248.1175.06.16278.0238976.0280512.0205551.0701339-.0075.0940236-.0124764.0106929-.0279213.0159764-.0431654.0159724zm.483594 0c-.0154055 0-.0307087-.00527559-.0433465-.0159724-.0279055-.0238898-.031248-.0659724-.0073622-.0940236.0386142-.0452795.0598622-.103059.0598622-.16278 0-.0597244-.021248-.1175-.0598622-.16278-.0238858-.0280551-.0205551-.0701378.0073622-.0940276.028063-.0238898.0701378-.0205551.0940276.0075.0591929.0694449.0918071.157917.0918071.249307.00001181.0913858-.0326378.179862-.0918071.249307-.0131811.0155512-.0319449.0234724-.0506811.0234685z"/><path id="_460486088" d="m2.71656 2.3193h.35028v-1.02194h-.35028zm.416937.133335h-.483594c-.0369685 0-.0666969-.0298622-.0666969-.0666654l.00000787-1.15528c0-.0369409.0297126-.0666614.0666614-.0666614h.483622c.036811 0 .0666496.0297205.0666496.0666654l.00000394 1.15528c0 .0368031-.0298622.0666654-.0666535.0666654z"/><path id="_460486016" d="m3.83975 1.55194c-.0775 0-.153067-.0227756-.220984-.0433307-.0126378-.00375197-.0251378-.0076378-.0375-.011248-.0374843-.0108346-.0715276-.021252-.104587-.0315276-.138051-.0425039-.229299-.0706969-.330689-.051252-.0362402.00680709-.0711142-.0168071-.0780591-.0530551-.00680315-.0361142.0168031-.0711142.0530591-.0779173.134043-.0256929.249303.00985827.395.0548583.0319488.0098622.0658307.0202795.102362.0308386.0127756.00374409.0258268.00777559.0390236.0116614.0715315.0216654.145417.0440315.210417.0361142.0363937-.00458268.0697244.0215276.0743071.0580551.00446457.0365276-.0215276.0697205-.0581969.0743071-.0147165.00179921-.0294409.0025-.0441535.00249606zm.00125197.236807c-.105283 0-.200012-.0276378-.298622-.0565276l-.0269409-.00777953c-.04-.0116654-.0758386-.0230551-.107366-.0331929-.116386-.0373583-.174862-.0561102-.252638-.0290276-.0348386.0122244-.0727835-.00624803-.0850039-.0409724-.0120551-.0347205.00638976-.0727756.0411142-.0848622.12002-.0418071.21111-.0126378.33722.0279173.0308622.0098622.0655551.0209724.103752.0320827l.0272323.00791732c.130563.0380551.233602.0681929.360543.0401378.0359882-.00791339.0715276.0148622.0794449.0508346.00791732.0359685-.0147205.0715276-.0506929.0794449-.0448583.00985827-.0872244.0140276-.128043.0140276z"/><path id="_460485944" d="m4.05765 1.42097c-.069437 0-.125976.0565236-.125976.125831.00000787.0694409.0565315.125972.125972.125972.0694764 0 .125976-.0565276.125976-.125972 0-.0693071-.0565276-.125831-.125972-.125831zm0 .385134c-.142906 0-.259307-.116248-.259307-.259303.00002756-.142913.11639-.259165.259303-.259165.142945-.00000394.259307.116252.259307.259165.00001181.143055-.116386.259307-.259303.259303z"/><path id="_460485872" d="m4.44281 2.49083c-.023185 0-.0458543-.0122205-.0580748-.0338898l-.327083-.581528-.327059.581528c-.0179409.0320866-.0586378.0434764-.0907205.0254173-.032063-.0180551-.0434724-.058748-.0254134-.0908307l.385165-.684724c.0117795-.0209724.034-.0340276.0580236-.0340276h.00000394c.0240315 0 .046252.0130551.0580512.0340276l.385169.684724c.0180315.0320827.00664173.0727756-.0254409.0908307-.0102795.00583465-.0215315.00847638-.032622.00847244z"/><path id="_460485800" d="m3.73991 2.49083c.0112205.165555.149555.296669.317744.296669.16835-.00000394.306531-.13111.317783-.296665l-.635528-.00000394zm.317748.43c-.249154 0-.451807-.202638-.451807-.451803l.00002756-.0448622c0-.0368071.0298346-.0666654.0666417-.0666654h.770295c.036815 0 .0666496.0298583.0666496.0666654l.00000787.0448622c0 .249165-.20265.451807-.451815.451803z"/><path id="_460485728" d="m3.13337 1.29736c-.035563 0-.0650276-.0281929-.0665512-.0640236-.00025984-.00583858-.0108346-.147224-.175142-.298472-.164433.151244-.174862.292776-.17528.299165-.00221654.0363858-.0331929.0647205-.0698583.0629134-.0365118-.00194094-.0648661-.0324961-.0633346-.0690276.00044488-.00916535.0119409-.228472.266665-.432913.0244685-.0195827.0591693-.0195827.0834724 0 .254748.204441.26639.423748.266669.432913.00154724.0368071-.0270827.0679213-.0638898.0693071-.00081496-.00000394-.00180709.0001378-.00275197.0001378z"/><path id="_460485656" d="m1.94363 1.55194c-.0147205 0-.0294488-.00069291-.0443071-.00249606-.0365079-.00458661-.0625-.0377795-.0580591-.0743071.00445669-.0365315.0376457-.0626378.074311-.0580551.0650236.00791732.13889-.0144449.21028-.0361142.0132126-.00388976.026248-.00791732.0390236-.0116614.0365315-.0105591.0704173-.0209724.102362-.0308386.145858-.045.261114-.0805512.395138-.0548583.036126.00680315.0598622.0418031.0529173.0779173-.00691732.0362441-.0419449.0598622-.0779173.0530551-.1015-.0194488-.192776.00874803-.330831.051252-.0329173.0102717-.0670827.0206929-.104441.0315276-.0123543.00361024-.0248661.0075-.0376457.011248-.0677717.0205551-.143331.0433346-.220831.0433307zm-.00125197.236807c-.040811 0-.0831969-.00416535-.128055-.0140276-.0359449-.00791732-.058748-.0434724-.0508307-.0794449.00791732-.0359724.0434685-.058748.0795827-.0508346.126961.0280551.23-.00208268.360417-.0401378l.0272283-.00791732c.038189-.0111142.0730472-.0222205.10374-.0320827.126138-.0405551.217224-.0697244.33722-.0279173.0348858.0120866.0531969.0501417.0411142.0848622-.0120748.0347205-.0501378.0531969-.0848583.0409724-.0779016-.0270866-.13639-.00833071-.25278.0290276-.0315.0101378-.0673622.0215315-.107362.0331929l-.0269173.00777559c-.098626.0288898-.193358.0565315-.2985.0565315z"/><path id="_460485584" d="m1.72559 1.42097c-.0694409 0-.125858.0565236-.125858.125831.00001181.0694409.0563898.125972.125835.125972.0694606 0 .125972-.0565276.125972-.125972.00001968-.0693071-.0565276-.125831-.125949-.125831zm0 .385134c-.142941 0-.259193-.116248-.259193-.259303.00000394-.142913.116248-.259165.259169-.259165.143083-.00000394.259303.116252.259303.259165 0 .143055-.116248.259307-.25928.259303z"/><path id="_460485512" d="m2.11087 2.49083c-.0233425 0-.046-.0122205-.0582205-.0338898l-.327059-.581528-.326969.581528c-.0180315.0320866-.058752.0434764-.0908346.0254173-.0320748-.0180551-.0434724-.058748-.0254173-.0908307l.385157-.684724c.011811-.0209724.0340118-.0340276.0580394-.0340276.0241772 0 .0463858.0130551.0581929.0340276l.385142.684724c.018063.0320827.00666535.0727756-.0254213.0908307-.0103898.00583465-.0216654.00847638-.0326102.00847244z"/><path id="_460485440" d="m1.40794 2.49083c.011248.165555.149437.296669.317634.296669.168335-.00000394.306531-.13111.317776-.296665l-.635409-.00000394zm.317657.43c-.249031 0-.451831-.202638-.451831-.451803l.00001575-.0448622c0-.0368071.0298465-.0666654.0666535-.0666654h.770283c.036937 0 .0666614.0298583.0666614.0666654l.00002756.0448622c0 .249165-.202669.451807-.451811.451803z"/><path id="_460485368" d="m4.58572 6.28861h-4.09581c-.036811 0-.0666969-.0298622-.0666969-.0666654l.00000787-5.79542c0-.0368071.0298543-.0666693.0666614-.0666693h4.8035c.0367795 0 .0666417.0298622.0666417.0666693l.00001575 3.10014c0 .0368071-.029878.0666654-.066685.0666654-.0367835 0-.0666693-.0298583-.0666693-.0666654l.00000787-3.03348h-4.67012v5.66209h4.02915c.036815 0 .0666575.0298622.0666575.0666693 0 .0368031-.0298622.0666654-.0666575.0666654z"/><path id="_460485296" d="m2.97391 5.29806h-2.05831c-.036815 0-.0665512-.0298622-.0665512-.0666693.00001968-.0369449.0297205-.0666654.0665276-.0666654h2.05833c.036811 0 .0666654.0297244.0666654.0666654.00002362.0368071-.0298622.0666693-.0666654.0666693z"/><path id="_460485224" d="m2.97391 4.72791h-2.05831c-.036815 0-.0665512-.0298583-.0665512-.0666654.00001968-.0368071.0297205-.0666654.0665276-.0666654h2.05833c.036811 0 .0666654.0298622.0666654.0666654.00002362.0368071-.0298622.0666654-.0666654.0666654z"/><path id="_460485152" d="m2.97391 4.15791h-2.05831c-.036815 0-.0665512-.0298583-.0665512-.0666654.00001968-.0368071.0297205-.0666654.0665276-.0666654h2.05833c.036811 0 .0666654.0298583.0666654.0666654.00002362.0368071-.0298622.0666654-.0666654.0666654z"/><path id="_460485080" d="m2.97391 5.86806h-2.05831c-.036815 0-.0665512-.0298622-.0665512-.0666693.00001968-.0368031.0297205-.0666654.0665276-.0666654h2.05833c.036811 0 .0666654.0298622.0666654.0666654.00002362.0368071-.0298622.0666693-.0666654.0666693z"/><path id="_460485032" d="m4.80713 5.22667c-.0176575 0-.0346102-.00694488-.0471102-.0194449l-.304862-.304862c-.0259685-.0259685-.0259764-.0681929 0-.0943031.0259724-.0259724.0681929-.0259724.0943071 0l.257665.257776.654-.654028c.026-.0259724.0681929-.0259685.0943071 0 .0259724.0259724.0259685.0681969 0 .0943071l-.701091.70111c-.0125.0125-.0296063.0194449-.0472165.0194449z"/></g></g></svg>